<?xml version="1.0" encoding="UTF-8" standalone="no"?>
<!DOCTYPE svg PUBLIC "-//W3C//DTD SVG 1.1//EN" "http://www.w3.org/Graphics/SVG/1.1/DTD/svg11.dtd">
<svg width="100%" height="100%" viewBox="0 0 1667 1667" version="1.1" xmlns="http://www.w3.org/2000/svg" xmlns:xlink="http://www.w3.org/1999/xlink" xml:space="preserve" xmlns:serif="http://www.serif.com/" style="fill-rule:evenodd;clip-rule:evenodd;stroke-linejoin:round;stroke-miterlimit:2;">
    <g transform="matrix(1,0,0,1,-64.58,-144.47)">
        <g id="Layer1">
            <circle cx="897.913" cy="977.803" r="813.27" style="fill:rgb(234,221,215);"/>
        </g>
    </g>
    <g id="layer1" transform="matrix(7.28353,0,0,7.28353,-258.74,-56.3113)">
        <g id="path9" transform="matrix(1,0,0,1,0.218241,0.374126)">
            <path d="M144.946,213.26C128.297,212.308 105.383,199.177 101.422,191.602C94.815,187.595 82.291,177.449 95.806,174.981C102.071,172.871 114.107,169.927 117.141,167.276C113.307,157.828 129.969,173.35 126.477,162.653C123.364,157.885 118.084,154.752 121.838,151.832C118.587,146.337 101.378,152.687 109.006,143.63C118.834,140.796 127.969,149.092 132.039,157.351C133.827,152.391 127.861,146.526 129.602,141.716C136.118,140.997 136.97,156.155 138.149,155.666C140.386,150.284 141.687,156.354 144.478,157.803C147.235,161.685 138.702,174.318 142.811,174.397C144.942,174.438 146.024,172.172 146.706,170.667C150.424,162.468 150.38,152.432 150.71,143.507C151.095,123.184 139.479,103.284 146.141,82.983C151.366,65.788 170.316,51.708 188.483,56.836C198.057,59.539 198.268,74.996 187.568,67.455C183.856,62.93 168.796,65.336 172.998,70.894C178.881,65.776 190.062,76.017 178.772,76.006C173.67,76.001 166.26,85.592 166.26,85.592C166.26,85.592 162.696,94.754 160.588,91.467C153.729,104.174 159.047,119.075 159.741,132.599C160.867,143.384 159.481,154.672 152.923,163.603C151.819,166.68 150.117,172.257 149.049,170.199C151.43,167.697 149.791,167.047 146.706,170.667C145.448,172.696 144.922,172.128 149.218,171.806C150.591,171.703 151.386,176.176 152.637,173.683C153.291,172.378 152.443,173.203 151.898,171.683C150.91,170.12 152.866,166.786 154.19,165.802C154.955,161.641 157.181,161.296 160.245,162.535C163.517,163.117 160.964,155.218 165.078,156.006C168.593,145.346 176.976,134.468 188.745,132.961C201.184,136.701 171.279,140.924 185.23,139.642C191.524,144.235 174.337,146.339 174.336,153.121C170.93,157.366 171.835,163.155 175.268,155.304C176.763,147.884 192.305,149.083 182.646,155.353C180.564,156.769 173.016,169.198 179.637,165.779C181.661,161.694 188.738,165.044 183.694,168.009C192.809,170.887 202.236,172.619 210.952,177.143C214.57,179.02 200.671,191.682 193.51,198.472C180.687,210.631 162.102,214.338 144.946,213.26L144.946,213.26ZM151.612,210.547C156.07,205.243 162.214,196.505 163.059,191.411C155.059,192.334 142.799,190.314 137.348,192.266C141.4,197.773 144.833,210.226 151.612,210.547ZM165.306,210.205C177.601,207.83 189.613,201.763 197.095,191.481C185.942,197.965 175.549,205.981 163.33,210.437L163.522,210.498L165.306,210.205L165.306,210.205ZM137.109,210.298C125.23,205.794 115.143,197.848 104.136,191.708C112.1,202.108 124.421,208.142 137.109,210.298ZM145.7,209.564C138.761,203.108 138.42,187.875 126.023,190.836C121.696,190.404 114.816,188.722 122.403,193.21C130.289,198.975 137.473,205.895 146.23,210.351L145.7,209.564ZM155.972,209.633C165.29,204.2 174.481,196.413 182.962,189.798C177.904,192.037 168.076,188.459 164.992,193.411C163.897,197.478 153.598,210.08 155.972,209.633ZM141.357,209.851C131.496,203.486 123.479,194.041 113.093,188.803C109.472,186.977 104.997,185.417 100.655,184.125C96.351,182.844 94.701,182.82 96.177,184.035C99.69,186.925 124.505,202.582 141.321,209.905L141.357,209.851ZM165.424,207.549C180.562,200.81 206.821,183.011 208.528,180.937C210.212,178.892 192.244,187.929 185.487,190.166C177.027,196.507 168.944,203.355 160.254,209.385C162.011,208.872 163.722,208.218 165.424,207.549ZM161.499,189.546C175.356,189.788 189.324,187.886 201.943,181.892C207.961,180.122 213.58,176.585 204.211,176.379C198.389,176.007 182.572,166.566 182.413,171.955C187.191,174.098 201.395,175.219 199.243,180.31C180.761,189.044 159.72,186.733 139.893,187.076C126.624,186.531 112.26,186.188 100.693,179.069C104.626,173.644 122.256,174.882 120.046,169.672C110.629,171.158 93.599,176.129 92.791,177.481C89.753,182.563 103.623,182.142 108.026,184.818C112.576,187.584 144.008,189.519 161.499,189.546ZM162.231,159.815C161.368,158.956 162.609,159.553 162.231,159.815L162.231,159.815ZM111.841,154.403C108.06,148.109 122.271,153.382 114.082,153.926C112.892,154.005 112.625,155.543 111.841,154.403ZM98.907,151.688C95.063,145.297 111.128,138.981 102.594,148.608C101.487,149.857 100.015,153.528 98.907,151.688ZM144.16,153.056C137.723,148.045 145.366,136.977 146.835,146.241C147.189,148.133 146.81,153.305 144.16,153.056ZM162.567,148.694C161.615,147.765 163.435,142.175 164.198,140.973C166.94,136.655 168.238,130.327 168.208,123.261C168.178,116.393 170.44,115.715 175.592,111.198C177.367,109.642 183.086,114.273 179.607,107.005C176.512,100.537 192,104.985 183.731,108.862C189.641,109.202 201.427,103.021 209.014,108.849C217.29,116.173 201.113,118.083 195.487,113.506C182.373,113.251 203.66,114.855 196.914,119.526C183.671,117.796 171.965,127.583 167.31,139.359C165.981,142.721 166.525,148.369 164.321,148.954C164.321,148.954 163.172,149.285 162.567,148.694ZM210.647,113.493C211.683,112.293 210.064,111.015 209.815,112.3C209.75,112.637 209.986,114.257 210.647,113.493ZM127.245,142.741C127.245,142.741 99.072,135.199 98.556,134.777C89.805,127.625 109.403,124.708 114.434,129.118C118.337,132.54 130.248,137.512 127.245,142.741ZM91.75,131.853C83.904,133.713 89.38,121.788 91.896,128.483C95.015,128.424 96.231,132.891 91.75,131.853ZM135.703,145.034C132.473,134.983 127.412,123.37 115.697,120.735C106.884,114.746 93.179,126.434 87.55,117.618C86.736,110.016 109.744,113.249 96.094,110.354C88.28,107.473 75.849,125.328 74.053,113.162C79.226,103.069 94.793,101.612 103.833,106.843C111.204,111.308 120.807,111.304 127.358,117.613C123.689,109.621 108.034,109.796 109.126,99.939C118.296,102.109 126.609,110.661 132.644,118.037C134.475,124.196 139.262,124.064 135.796,117.821C141.691,118.525 150.012,122.768 143.879,130.876C148.833,133.298 147.608,136.943 147.608,136.943C147.608,136.943 147.196,139.492 144.796,139.945C141.783,140.512 142.908,136.983 142.326,134.535C140.606,132.366 135.074,133.159 138.228,138.976C139.034,140.463 138.461,146.073 135.703,145.034ZM198.051,141.387C193.491,142.203 192.947,138.516 197.16,137.411C200.725,131.664 204.687,143.746 198.051,141.387ZM162.902,136.712C162.347,137.762 162.054,128.056 163.9,133.668C164.144,134.216 163.999,137.077 162.902,136.712ZM178.47,132.704C174.851,130.134 196.097,122.721 186.404,130.811C184.054,132.349 181.287,133.139 178.47,132.704ZM205.645,101.936C203.001,97.158 213.821,95.925 207.2,101.715L206.366,102.078L205.645,101.936ZM203.933,122.583C195.738,118.467 212.054,118.551 205.373,122.602L203.933,122.583ZM160.419,121.407C160.293,116.815 157.6,98.871 165.064,104.243C162.19,109.105 162.762,118.251 160.419,121.407ZM199.959,153.42C198.978,149.809 202.052,141.532 203.14,150.104C203.376,151.959 200.474,155.313 199.959,153.42ZM88.512,151.906C80.52,143.437 104.209,136.419 101.845,141.477C95.146,142.024 93.738,151.458 88.512,151.906ZM136.118,114.444C136.118,114.444 117.778,103.073 123.43,98.587C126.588,96.081 131.214,111.46 129.316,100.43C128.102,94.529 123.523,78.837 118.187,81.254C120.305,84.881 126.592,99.914 119.66,89.228C114.092,80.053 94.665,77.363 93.758,74.567C90.799,65.432 105.76,70.004 108.691,70.548C105.463,63.381 83.107,67.17 93.071,57.117C104.581,53.834 116.307,61.683 123.285,70.386C130.55,79.452 133.371,91.023 135.494,102.1C144.792,95.598 147.382,118.738 137.993,109.454C132.55,101.073 140.68,115.084 136.118,114.444ZM132.077,81.198C128.799,77.157 139.577,79.735 134.603,82.221L132.077,81.198ZM98.863,100.713C93.236,98.259 85.218,100.102 82.379,92.698C73.784,91.214 79.696,74.186 80.729,87.87C83.32,94.382 87.946,74.019 94.136,85.279C97.849,92.938 79.425,94.316 92.505,97.221C95.667,96.969 95.704,82.382 102.097,90.071C104.503,92.964 95.032,101.732 104.164,97.752C112.33,94.193 103.822,104.986 98.863,100.713ZM88.993,91.185C97.356,88.628 86.784,79.085 86.039,88.54C85.1,91.275 86.535,92.25 88.993,91.185ZM167.358,99.005C157.969,99.512 170.808,87.131 173.339,83.997C177.028,78.83 195.288,71.937 192.535,82.647C192.236,83.808 174.154,91.857 174.154,91.857C174.154,91.857 170.393,100.207 167.358,99.005ZM175.488,98.87C176.548,94.518 189.1,84.011 182.292,94.048C180.656,96.286 178.567,99.693 175.488,98.87ZM118.579,95.895C113.379,94.632 108.21,85.17 117.145,89.929C118.857,89.781 122.212,100.698 118.579,95.895ZM101.922,88.027C97.838,83.476 108.38,78.852 108.231,86.547C106.476,87.775 104.044,88.43 101.922,88.027ZM196.547,78.333C190.5,74.719 196.892,67.447 198.34,75.166C198.4,75.744 197.822,79.727 196.547,78.333ZM78.223,77.593C73.276,67.726 97.041,77.509 84.453,75.754C82.173,75.52 80.466,78.108 78.223,77.593ZM127.031,63.839C122.925,59.766 132.718,54.62 130.017,51.901C138.11,53.269 128.616,61.96 127.031,63.839ZM137.889,72.649C132.674,67.964 142.662,72.472 146.997,68.027C150.063,64.884 153.088,60.269 151.13,61.269C148.781,62.469 135.747,67.175 139.864,64.49C145.912,61.827 155.542,56.938 162.628,53.163C168.002,49.305 170.28,40.167 172.797,38.409C181.035,40.416 159.809,56.464 173.584,48.348C177.842,45.839 181.31,36.026 179.985,45.606C179.493,49.164 167.069,52.901 161.512,57.602C154.531,62.75 145.006,73.278 140.433,73.177C139.07,73.147 137.889,72.649 137.889,72.649ZM114.683,58.557C111.909,56.402 97.61,50.967 106.679,49.291C109.638,47.717 122.35,64.039 114.683,58.557ZM199.363,59.448C189.597,59.228 198.049,48.402 202.002,53.833C198.19,56.063 208.033,57.799 201.05,59.46L199.363,59.448L199.363,59.448ZM152.98,55.29C155.628,49.122 155.306,47.825 161.652,43.079C163.761,41.501 163.889,47.71 161.154,48.528C157.796,49.532 155.124,53.73 152.98,55.29ZM176.379,53.54C178.925,48.701 194.263,43.331 192.657,51.56C192.127,54.28 189.951,51.096 182.579,53.03C180.184,53.641 175.538,55.138 176.379,53.54ZM112.971,49.036C106.661,41.609 121.079,49.03 114.075,49.75L112.971,49.036Z" style="fill:rgb(74,74,74);fill-rule:nonzero;"/>
            <clipPath id="_clip1">
                <path d="M144.946,213.26C128.297,212.308 105.383,199.177 101.422,191.602C94.815,187.595 82.291,177.449 95.806,174.981C102.071,172.871 114.107,169.927 117.141,167.276C113.307,157.828 129.969,173.35 126.477,162.653C123.364,157.885 118.084,154.752 121.838,151.832C118.587,146.337 101.378,152.687 109.006,143.63C118.834,140.796 127.969,149.092 132.039,157.351C133.827,152.391 127.861,146.526 129.602,141.716C136.118,140.997 136.97,156.155 138.149,155.666C140.386,150.284 141.687,156.354 144.478,157.803C147.235,161.685 138.702,174.318 142.811,174.397C144.942,174.438 146.024,172.172 146.706,170.667C150.424,162.468 150.38,152.432 150.71,143.507C151.095,123.184 139.479,103.284 146.141,82.983C151.366,65.788 170.316,51.708 188.483,56.836C198.057,59.539 198.268,74.996 187.568,67.455C183.856,62.93 168.796,65.336 172.998,70.894C178.881,65.776 190.062,76.017 178.772,76.006C173.67,76.001 166.26,85.592 166.26,85.592C166.26,85.592 162.696,94.754 160.588,91.467C153.729,104.174 159.047,119.075 159.741,132.599C160.867,143.384 159.481,154.672 152.923,163.603C151.819,166.68 150.117,172.257 149.049,170.199C151.43,167.697 149.791,167.047 146.706,170.667C145.448,172.696 144.922,172.128 149.218,171.806C150.591,171.703 151.386,176.176 152.637,173.683C153.291,172.378 152.443,173.203 151.898,171.683C150.91,170.12 152.866,166.786 154.19,165.802C154.955,161.641 157.181,161.296 160.245,162.535C163.517,163.117 160.964,155.218 165.078,156.006C168.593,145.346 176.976,134.468 188.745,132.961C201.184,136.701 171.279,140.924 185.23,139.642C191.524,144.235 174.337,146.339 174.336,153.121C170.93,157.366 171.835,163.155 175.268,155.304C176.763,147.884 192.305,149.083 182.646,155.353C180.564,156.769 173.016,169.198 179.637,165.779C181.661,161.694 188.738,165.044 183.694,168.009C192.809,170.887 202.236,172.619 210.952,177.143C214.57,179.02 200.671,191.682 193.51,198.472C180.687,210.631 162.102,214.338 144.946,213.26L144.946,213.26ZM151.612,210.547C156.07,205.243 162.214,196.505 163.059,191.411C155.059,192.334 142.799,190.314 137.348,192.266C141.4,197.773 144.833,210.226 151.612,210.547ZM165.306,210.205C177.601,207.83 189.613,201.763 197.095,191.481C185.942,197.965 175.549,205.981 163.33,210.437L163.522,210.498L165.306,210.205L165.306,210.205ZM137.109,210.298C125.23,205.794 115.143,197.848 104.136,191.708C112.1,202.108 124.421,208.142 137.109,210.298ZM145.7,209.564C138.761,203.108 138.42,187.875 126.023,190.836C121.696,190.404 114.816,188.722 122.403,193.21C130.289,198.975 137.473,205.895 146.23,210.351L145.7,209.564ZM155.972,209.633C165.29,204.2 174.481,196.413 182.962,189.798C177.904,192.037 168.076,188.459 164.992,193.411C163.897,197.478 153.598,210.08 155.972,209.633ZM141.357,209.851C131.496,203.486 123.479,194.041 113.093,188.803C109.472,186.977 104.997,185.417 100.655,184.125C96.351,182.844 94.701,182.82 96.177,184.035C99.69,186.925 124.505,202.582 141.321,209.905L141.357,209.851ZM165.424,207.549C180.562,200.81 206.821,183.011 208.528,180.937C210.212,178.892 192.244,187.929 185.487,190.166C177.027,196.507 168.944,203.355 160.254,209.385C162.011,208.872 163.722,208.218 165.424,207.549ZM161.499,189.546C175.356,189.788 189.324,187.886 201.943,181.892C207.961,180.122 213.58,176.585 204.211,176.379C198.389,176.007 182.572,166.566 182.413,171.955C187.191,174.098 201.395,175.219 199.243,180.31C180.761,189.044 159.72,186.733 139.893,187.076C126.624,186.531 112.26,186.188 100.693,179.069C104.626,173.644 122.256,174.882 120.046,169.672C110.629,171.158 93.599,176.129 92.791,177.481C89.753,182.563 103.623,182.142 108.026,184.818C112.576,187.584 144.008,189.519 161.499,189.546ZM162.231,159.815C161.368,158.956 162.609,159.553 162.231,159.815L162.231,159.815ZM111.841,154.403C108.06,148.109 122.271,153.382 114.082,153.926C112.892,154.005 112.625,155.543 111.841,154.403ZM98.907,151.688C95.063,145.297 111.128,138.981 102.594,148.608C101.487,149.857 100.015,153.528 98.907,151.688ZM144.16,153.056C137.723,148.045 145.366,136.977 146.835,146.241C147.189,148.133 146.81,153.305 144.16,153.056ZM162.567,148.694C161.615,147.765 163.435,142.175 164.198,140.973C166.94,136.655 168.238,130.327 168.208,123.261C168.178,116.393 170.44,115.715 175.592,111.198C177.367,109.642 183.086,114.273 179.607,107.005C176.512,100.537 192,104.985 183.731,108.862C189.641,109.202 201.427,103.021 209.014,108.849C217.29,116.173 201.113,118.083 195.487,113.506C182.373,113.251 203.66,114.855 196.914,119.526C183.671,117.796 171.965,127.583 167.31,139.359C165.981,142.721 166.525,148.369 164.321,148.954C164.321,148.954 163.172,149.285 162.567,148.694ZM210.647,113.493C211.683,112.293 210.064,111.015 209.815,112.3C209.75,112.637 209.986,114.257 210.647,113.493ZM127.245,142.741C127.245,142.741 99.072,135.199 98.556,134.777C89.805,127.625 109.403,124.708 114.434,129.118C118.337,132.54 130.248,137.512 127.245,142.741ZM91.75,131.853C83.904,133.713 89.38,121.788 91.896,128.483C95.015,128.424 96.231,132.891 91.75,131.853ZM135.703,145.034C132.473,134.983 127.412,123.37 115.697,120.735C106.884,114.746 93.179,126.434 87.55,117.618C86.736,110.016 109.744,113.249 96.094,110.354C88.28,107.473 75.849,125.328 74.053,113.162C79.226,103.069 94.793,101.612 103.833,106.843C111.204,111.308 120.807,111.304 127.358,117.613C123.689,109.621 108.034,109.796 109.126,99.939C118.296,102.109 126.609,110.661 132.644,118.037C134.475,124.196 139.262,124.064 135.796,117.821C141.691,118.525 150.012,122.768 143.879,130.876C148.833,133.298 147.608,136.943 147.608,136.943C147.608,136.943 147.196,139.492 144.796,139.945C141.783,140.512 142.908,136.983 142.326,134.535C140.606,132.366 135.074,133.159 138.228,138.976C139.034,140.463 138.461,146.073 135.703,145.034ZM198.051,141.387C193.491,142.203 192.947,138.516 197.16,137.411C200.725,131.664 204.687,143.746 198.051,141.387ZM162.902,136.712C162.347,137.762 162.054,128.056 163.9,133.668C164.144,134.216 163.999,137.077 162.902,136.712ZM178.47,132.704C174.851,130.134 196.097,122.721 186.404,130.811C184.054,132.349 181.287,133.139 178.47,132.704ZM205.645,101.936C203.001,97.158 213.821,95.925 207.2,101.715L206.366,102.078L205.645,101.936ZM203.933,122.583C195.738,118.467 212.054,118.551 205.373,122.602L203.933,122.583ZM160.419,121.407C160.293,116.815 157.6,98.871 165.064,104.243C162.19,109.105 162.762,118.251 160.419,121.407ZM199.959,153.42C198.978,149.809 202.052,141.532 203.14,150.104C203.376,151.959 200.474,155.313 199.959,153.42ZM88.512,151.906C80.52,143.437 104.209,136.419 101.845,141.477C95.146,142.024 93.738,151.458 88.512,151.906ZM136.118,114.444C136.118,114.444 117.778,103.073 123.43,98.587C126.588,96.081 131.214,111.46 129.316,100.43C128.102,94.529 123.523,78.837 118.187,81.254C120.305,84.881 126.592,99.914 119.66,89.228C114.092,80.053 94.665,77.363 93.758,74.567C90.799,65.432 105.76,70.004 108.691,70.548C105.463,63.381 83.107,67.17 93.071,57.117C104.581,53.834 116.307,61.683 123.285,70.386C130.55,79.452 133.371,91.023 135.494,102.1C144.792,95.598 147.382,118.738 137.993,109.454C132.55,101.073 140.68,115.084 136.118,114.444ZM132.077,81.198C128.799,77.157 139.577,79.735 134.603,82.221L132.077,81.198ZM98.863,100.713C93.236,98.259 85.218,100.102 82.379,92.698C73.784,91.214 79.696,74.186 80.729,87.87C83.32,94.382 87.946,74.019 94.136,85.279C97.849,92.938 79.425,94.316 92.505,97.221C95.667,96.969 95.704,82.382 102.097,90.071C104.503,92.964 95.032,101.732 104.164,97.752C112.33,94.193 103.822,104.986 98.863,100.713ZM88.993,91.185C97.356,88.628 86.784,79.085 86.039,88.54C85.1,91.275 86.535,92.25 88.993,91.185ZM167.358,99.005C157.969,99.512 170.808,87.131 173.339,83.997C177.028,78.83 195.288,71.937 192.535,82.647C192.236,83.808 174.154,91.857 174.154,91.857C174.154,91.857 170.393,100.207 167.358,99.005ZM175.488,98.87C176.548,94.518 189.1,84.011 182.292,94.048C180.656,96.286 178.567,99.693 175.488,98.87ZM118.579,95.895C113.379,94.632 108.21,85.17 117.145,89.929C118.857,89.781 122.212,100.698 118.579,95.895ZM101.922,88.027C97.838,83.476 108.38,78.852 108.231,86.547C106.476,87.775 104.044,88.43 101.922,88.027ZM196.547,78.333C190.5,74.719 196.892,67.447 198.34,75.166C198.4,75.744 197.822,79.727 196.547,78.333ZM78.223,77.593C73.276,67.726 97.041,77.509 84.453,75.754C82.173,75.52 80.466,78.108 78.223,77.593ZM127.031,63.839C122.925,59.766 132.718,54.62 130.017,51.901C138.11,53.269 128.616,61.96 127.031,63.839ZM137.889,72.649C132.674,67.964 142.662,72.472 146.997,68.027C150.063,64.884 153.088,60.269 151.13,61.269C148.781,62.469 135.747,67.175 139.864,64.49C145.912,61.827 155.542,56.938 162.628,53.163C168.002,49.305 170.28,40.167 172.797,38.409C181.035,40.416 159.809,56.464 173.584,48.348C177.842,45.839 181.31,36.026 179.985,45.606C179.493,49.164 167.069,52.901 161.512,57.602C154.531,62.75 145.006,73.278 140.433,73.177C139.07,73.147 137.889,72.649 137.889,72.649ZM114.683,58.557C111.909,56.402 97.61,50.967 106.679,49.291C109.638,47.717 122.35,64.039 114.683,58.557ZM199.363,59.448C189.597,59.228 198.049,48.402 202.002,53.833C198.19,56.063 208.033,57.799 201.05,59.46L199.363,59.448L199.363,59.448ZM152.98,55.29C155.628,49.122 155.306,47.825 161.652,43.079C163.761,41.501 163.889,47.71 161.154,48.528C157.796,49.532 155.124,53.73 152.98,55.29ZM176.379,53.54C178.925,48.701 194.263,43.331 192.657,51.56C192.127,54.28 189.951,51.096 182.579,53.03C180.184,53.641 175.538,55.138 176.379,53.54ZM112.971,49.036C106.661,41.609 121.079,49.03 114.075,49.75L112.971,49.036Z" clip-rule="nonzero"/>
            </clipPath>
            <g clip-path="url(#_clip1)">
                <g transform="matrix(0.18,0,0,0.18,-0.218241,-0.374126)">
                    <path d="M902.778,888.775C904.441,878.043 906.015,866.424 918.315,868.778C937.838,809.558 984.411,749.122 1049.8,740.753C1118.9,761.529 952.765,784.991 1030.27,777.865C1065.24,803.385 969.753,815.071 969.745,852.752C950.823,876.332 955.849,908.493 974.922,864.878C983.228,823.654 1069.57,830.316 1015.91,865.148C1004.35,873.017 962.413,942.066 999.195,923.071C1010.44,900.377 1049.76,918.99 1021.73,935.464C1072.37,951.452 1124.75,961.075 1173.17,986.205C1193.27,996.636 1116.05,1066.98 1076.27,1104.7C1005.03,1172.25 901.78,1192.85 806.47,1186.86C713.976,1181.57 586.671,1108.62 564.669,1066.54C527.963,1044.28 458.385,987.905 533.468,974.197C568.272,962.473 635.138,946.12 651.994,931.387C641.209,881.437 723.26,965.134 703.861,905.707C686.571,879.216 657.233,861.814 678.092,845.589C660.03,815.06 564.426,850.337 606.801,800.023C661.4,784.28 712.149,830.369 734.764,876.249C744.699,848.693 711.549,816.11 721.226,789.389C757.422,785.394 762.159,869.607 768.709,866.887C781.136,836.987 788.361,870.712 803.866,878.76C819.183,900.331 771.781,970.511 794.607,970.951C802.923,971.111 808.365,964.944 812.181,958.364C814.139,958.446 819.454,957.363 830.2,956.558C837.828,955.986 842.246,980.833 849.195,966.983C852.831,959.733 848.116,964.32 845.09,955.873C839.602,947.189 850.469,928.668 857.826,923.201C862.074,900.084 874.439,898.168 891.462,905.049C899.53,906.485 901.224,898.641 902.61,889.853C902.976,889.536 902.97,889.146 902.778,888.775ZM867.723,1166.71C919.493,1136.52 970.551,1093.26 1017.67,1056.51C989.566,1068.95 934.966,1049.07 917.835,1076.59C911.749,1099.18 854.533,1169.19 867.723,1166.71ZM920.233,1155.13C1004.33,1117.69 1150.22,1018.81 1159.7,1007.28C1169.06,995.92 1069.24,1046.13 1031.69,1058.56C984.694,1093.79 939.79,1131.83 891.512,1165.33C901.273,1162.48 910.777,1158.84 920.233,1155.13ZM786.531,1167.92C731.745,1132.56 687.208,1080.09 629.506,1050.99C609.39,1040.84 584.529,1032.17 560.406,1025C536.495,1017.88 527.328,1017.75 535.53,1024.5C555.043,1040.55 692.906,1127.54 786.328,1168.22L786.531,1167.92ZM898.429,1055.11C975.413,1056.46 1053.02,1045.89 1123.12,1012.59C1156.55,1002.76 1187.77,983.107 1135.72,981.96C1103.38,979.897 1015.5,927.444 1014.62,957.385C1041.16,969.292 1120.07,975.518 1108.12,1003.8C1005.44,1052.32 888.543,1039.48 778.394,1041.39C704.678,1038.36 624.882,1036.46 560.617,996.906C582.467,966.765 680.412,973.646 668.133,944.698C615.819,952.955 521.209,980.572 516.72,988.082C499.842,1016.32 576.898,1013.98 601.355,1028.85C626.635,1044.21 801.254,1054.96 898.429,1055.11ZM843.503,1171.78C868.27,1142.32 902.399,1093.77 907.096,1065.47C862.653,1070.6 794.542,1059.38 764.254,1070.22C786.769,1100.82 805.842,1170 843.503,1171.78ZM810.658,1166.33C772.106,1130.46 770.21,1045.83 701.342,1062.28C677.301,1059.88 639.079,1050.54 681.229,1075.47C725.043,1107.5 764.949,1145.94 813.6,1170.7L810.658,1166.33ZM919.581,1169.89C987.883,1156.69 1054.62,1122.99 1096.18,1065.86C1034.22,1101.88 976.484,1146.42 908.602,1171.17L909.665,1171.51L919.581,1169.89ZM762.931,1170.4C696.932,1145.38 640.898,1101.23 579.747,1067.12C623.988,1124.9 692.44,1158.43 762.931,1170.4Z" style="fill:rgb(4,4,4);"/>
                </g>
                <g transform="matrix(0.18,0,0,0.18,-0.218241,-0.374126)">
                    <path d="M816.248,950.231C836.903,904.677 836.658,848.923 838.491,799.342C840.628,686.435 776.097,575.88 813.109,463.097C842.132,367.567 947.413,289.347 1048.34,317.836C1101.53,332.849 1102.7,418.722 1043.26,376.828C1022.64,351.692 938.967,365.058 962.313,395.934C994.998,367.501 1057.11,424.395 994.388,424.333C966.045,424.305 924.878,477.592 924.878,477.592C924.878,477.592 905.077,528.487 893.37,510.228C855.262,580.822 884.809,663.606 888.665,738.741C894.918,798.655 887.219,861.368 850.782,910.983C844.649,928.081 835.198,959.064 829.265,947.627C842.493,933.728 833.385,930.117 816.248,950.231Z" style="fill:rgb(32,32,32);"/>
                </g>
                <g transform="matrix(0.18,0,0,0.18,-0.218241,-0.374126)">
                    <path d="M755.115,807.825C737.173,751.985 709.057,687.469 643.976,672.83C595.011,639.554 518.874,704.489 487.599,655.509C483.077,613.277 610.903,631.24 535.067,615.154C491.659,599.149 422.597,698.346 412.621,630.755C441.359,574.687 527.843,566.591 578.063,595.649C619.012,620.458 672.361,620.433 708.756,655.486C688.374,611.082 601.403,612.058 607.468,557.297C658.412,569.351 704.597,616.861 738.125,657.84C748.294,692.055 774.891,691.322 755.635,656.642C788.387,660.55 834.612,684.124 800.538,729.168C828.06,742.622 821.255,762.873 821.255,762.873C821.255,762.873 818.968,777.036 805.633,779.548C788.894,782.702 795.145,763.096 791.91,749.495C782.358,737.446 751.624,741.85 769.146,774.167C773.624,782.427 770.44,813.593 755.115,807.825Z" style="fill:rgb(32,32,32);"/>
                </g>
                <g transform="matrix(0.18,0,0,0.18,-0.218241,-0.374126)">
                    <path d="M757.425,637.879C757.425,637.879 655.536,574.705 686.935,549.785C704.477,535.863 730.181,621.303 719.637,560.024C712.893,527.237 687.453,440.063 657.807,453.488C669.571,473.638 704.503,557.154 665.989,497.792C635.058,446.815 527.127,431.874 522.093,416.337C505.65,365.59 588.77,390.99 605.054,394.011C587.12,354.193 462.916,375.244 518.273,319.394C582.219,301.157 647.361,344.76 686.13,393.111C726.492,443.476 742.162,507.764 753.959,569.299C805.61,533.178 820.004,661.735 767.84,610.157C737.603,563.597 782.766,641.433 757.425,637.879Z" style="fill:rgb(54,54,54);"/>
                </g>
                <g transform="matrix(0.18,0,0,0.18,-0.218241,-0.374126)">
                    <path d="M930.981,552.106C878.818,554.925 950.145,486.139 964.205,468.726C984.702,440.026 1086.15,401.726 1070.85,461.226C1069.19,467.677 968.733,512.397 968.733,512.397C968.733,512.397 947.839,558.786 930.981,552.106Z" style="fill:rgb(54,54,54);"/>
                </g>
                <g transform="matrix(0.18,0,0,0.18,-0.218241,-0.374126)">
                    <path d="M767.264,405.686C738.292,379.656 793.777,404.702 817.863,380.007C834.894,362.545 851.703,336.906 840.826,342.46C827.771,349.126 755.362,375.272 778.235,360.355C811.835,345.559 865.336,318.403 904.701,297.428C934.56,275.997 947.21,225.23 961.198,215.462C1006.96,226.613 889.041,315.767 965.568,270.679C989.226,256.74 1008.49,202.221 1001.13,255.443C998.393,275.21 929.376,295.973 898.501,322.087C859.718,350.689 806.803,409.179 781.396,408.619C773.822,408.452 767.264,405.686 767.264,405.686Z" style="fill:rgb(54,54,54);"/>
                </g>
                <g transform="matrix(0.18,0,0,0.18,-0.218241,-0.374126)">
                    <path d="M706.939,356.742C684.13,334.113 738.534,305.522 723.529,290.418C768.489,298.016 715.743,346.3 706.939,356.742Z" style="fill:rgb(78,78,78);"/>
                </g>
                <g transform="matrix(0.18,0,0,0.18,-0.218241,-0.374126)">
                    <path d="M981.094,299.522C995.238,272.637 1080.45,242.809 1071.53,288.525C1068.58,303.636 1056.5,285.945 1015.54,296.689C1002.23,300.082 976.423,308.403 981.094,299.522Z" style="fill:rgb(78,78,78);"/>
                </g>
                <g transform="matrix(0.18,0,0,0.18,-0.218241,-0.374126)">
                    <path d="M992.712,739.323C972.607,725.045 1090.64,683.864 1036.79,728.806C1023.74,737.349 1008.36,741.741 992.712,739.323Z" style="fill:rgb(78,78,78);"/>
                </g>
                <g transform="matrix(0.18,0,0,0.18,-0.218241,-0.374126)">
                    <path d="M550.452,561.597C519.191,547.962 474.647,558.2 458.875,517.07C411.122,508.826 443.967,414.225 449.706,490.243C464.101,526.421 489.801,413.296 524.192,475.849C544.817,518.4 442.464,526.057 515.128,542.196C532.698,540.795 532.901,459.758 568.419,502.471C581.784,518.543 529.171,567.256 579.903,545.145C625.269,525.373 578.002,585.335 550.452,561.597ZM495.616,508.664C542.077,494.456 483.348,441.437 479.207,493.966C473.99,509.163 481.964,514.579 495.616,508.664Z" style="fill:rgb(103,103,103);"/>
                </g>
                <g transform="matrix(0.18,0,0,0.18,-0.218241,-0.374126)">
                    <path d="M567.448,491.116C544.756,465.834 603.326,440.147 602.495,482.898C592.744,489.716 579.235,493.356 567.448,491.116Z" style="fill:rgb(103,103,103);"/>
                </g>
                <g transform="matrix(0.18,0,0,0.18,-0.218241,-0.374126)">
                    <path d="M638.338,327.396C622.93,315.425 543.489,285.226 593.871,275.917C610.312,267.175 680.937,357.853 638.338,327.396Z" style="fill:rgb(103,103,103);"/>
                </g>
                <g transform="matrix(0.18,0,0,0.18,-0.218241,-0.374126)">
                    <path d="M628.827,274.5C593.776,233.24 673.871,274.469 634.961,278.47L628.827,274.5Z" style="fill:rgb(125,125,125);"/>
                </g>
                <g transform="matrix(0.18,0,0,0.18,-0.218241,-0.374126)">
                    <path d="M1108.79,332.344C1054.53,331.121 1101.48,270.98 1123.44,301.148C1102.27,313.539 1156.95,323.186 1118.15,332.414L1108.79,332.344Z" style="fill:rgb(125,125,125);"/>
                </g>
                <g transform="matrix(0.18,0,0,0.18,-0.218241,-0.374126)">
                    <path d="M976.147,551.354C982.032,527.176 1051.77,468.806 1013.95,524.566C1004.86,537.002 993.25,555.929 976.147,551.354Z" style="fill:rgb(158,158,158);"/>
                </g>
                <g transform="matrix(0.18,0,0,0.18,-0.218241,-0.374126)">
                    <path d="M1093.14,437.259C1059.55,417.185 1095.06,376.785 1103.1,419.667C1103.43,422.88 1100.22,445.006 1093.14,437.259Z" style="fill:rgb(158,158,158);"/>
                </g>
                <g transform="matrix(0.18,0,0,0.18,-0.218241,-0.374126)">
                    <path d="M435.784,433.153C408.3,378.333 540.328,432.687 470.397,422.935C457.731,421.634 448.245,436.012 435.784,433.153Z" style="fill:rgb(158,158,158);"/>
                </g>
                <g transform="matrix(0.18,0,0,0.18,-0.218241,-0.374126)">
                    <path d="M492.948,846.003C448.547,798.948 580.153,759.961 567.017,788.063C529.802,791.099 521.977,843.514 492.948,846.003Z" style="fill:rgb(158,158,158);"/>
                </g>
                <g transform="matrix(0.18,0,0,0.18,-0.218241,-0.374126)">
                    <path d="M659.985,534.829C631.097,527.813 602.376,475.244 652.016,501.682C661.53,500.861 680.166,561.512 659.985,534.829Z" style="fill:rgb(74,74,74);"/>
                </g>
            </g>
        </g>
        <g id="path91" serif:id="path9" transform="matrix(0.119887,0,0,0.0930057,60.7025,30.6019)">
            <path d="M669.832,280.565C640.18,253.309 644.077,163.837 695.021,150.245M695.021,150.245C695.021,150.245 725.837,143.805 714.751,170.133C703.666,196.46 684.18,280.795 669.832,280.565" style="fill:rgb(125,125,125);fill-rule:nonzero;"/>
        </g>
        <g id="path92" serif:id="path9" transform="matrix(0.40575,-0.395583,0.351283,0.360312,85.2043,138.335)">
            <path d="M211.141,99.15C210.295,106.016 198.05,102.621 194.206,99.359C190.362,96.096 187.557,90.764 187.557,90.764C187.557,90.764 212.351,89.332 211.141,99.15Z" style="fill:rgb(45,45,45);fill-rule:nonzero;"/>
        </g>
    </g>
</svg>
