<?xml version="1.0" encoding="UTF-8" standalone="no"?>
<!DOCTYPE svg PUBLIC "-//W3C//DTD SVG 1.1//EN" "http://www.w3.org/Graphics/SVG/1.1/DTD/svg11.dtd">
<svg width="100%" height="100%" viewBox="0 0 500 500" version="1.1" xmlns="http://www.w3.org/2000/svg" xmlns:xlink="http://www.w3.org/1999/xlink" xml:space="preserve" xmlns:serif="http://www.serif.com/" style="fill-rule:evenodd;clip-rule:evenodd;stroke-linejoin:round;stroke-miterlimit:2;">
    <g id="Layer1">
        <path d="M6.775,265.583C6.775,265.583 71.138,323.171 85.366,344.173C99.593,365.176 122.629,415.989 186.314,433.604C207.317,441.734 285.23,473.577 365.854,420.732C388.889,407.182 400.407,391.599 421.409,392.954C442.412,394.309 484.417,378.726 489.837,371.951C495.257,365.176 482.385,359.756 474.255,347.561C466.125,335.366 451.897,309.621 460.705,285.23C469.512,260.84 481.03,224.932 446.477,157.859C411.924,90.786 382.114,87.398 363.144,73.171C344.173,58.943 300.136,33.875 223.577,50.813C147.019,67.751 123.306,101.626 107.046,120.596C90.786,139.566 71.816,174.797 68.428,193.089C65.041,211.382 64.363,256.775 55.556,260.84C46.748,264.905 15.583,266.26 6.775,265.583Z" style="fill:white;"/>
    </g>
    <g>
        <g>
            <g>
                <path d="M457.9,306.3C457.6,306.3 457.2,306.3 456.9,306.2C454.8,305.6 453.5,303.4 454.1,301.3C458.7,284.4 461,266.9 461,249.3C461,140.1 372.2,51.3 263,51.3C156,51.3 67.2,138.3 65,245.2C65,247.4 63.2,249.1 61,249.1L60.9,249.1C58.7,249.1 57,247.2 57,245.1C58.1,191 80,140.3 118.7,102.3C157.4,64.3 208.7,43.4 262.9,43.4C376.5,43.4 468.8,135.8 468.8,249.3C468.8,267.7 466.4,285.9 461.6,303.4C461.2,305.1 459.6,306.3 457.9,306.3" style="fill:rgb(236,172,0);fill-rule:nonzero;"/>
                <path d="M262.9,455.2C195.7,455.2 132.6,422.3 94,367.2C92.7,365.4 93.2,362.9 95,361.7C96.8,360.4 99.3,360.9 100.5,362.7C137.6,415.7 198.3,447.3 262.9,447.3C305.1,447.3 345.3,434.2 379.3,409.5C381.1,408.2 383.5,408.6 384.8,410.4C386.1,412.2 385.7,414.7 383.9,415.9C348.6,441.6 306.8,455.2 262.9,455.2" style="fill:rgb(236,172,0);fill-rule:nonzero;"/>
                <path d="M371.3,257L371.2,257C369,256.9 367.3,255.1 367.4,252.9C367.4,251.7 367.5,250.5 367.5,249.2C367.5,191.8 320.8,145.2 263.5,145.2C213.8,145.2 170.9,180.6 161.4,229.3C161,231.5 158.9,232.9 156.8,232.4C154.6,232 153.2,229.9 153.7,227.7C163.9,175.3 210.1,137.2 263.6,137.2C325.3,137.2 375.5,187.4 375.5,249.2C375.5,250.5 375.5,251.8 375.4,253.1C375.2,255.3 373.4,257 371.3,257" style="fill:rgb(236,172,0);fill-rule:nonzero;"/>
                <path d="M119.6,246.9L99,245.6C92.1,245.2 88.4,241.1 88.8,234.2C89.2,227.3 93.5,223.8 100.4,224.2L104,224.4L103.6,230.7L99.7,230.5C96.5,230.3 94.8,231.8 94.7,234.4C94.5,237 96,238.7 99.2,238.9L120.4,240.2C123.6,240.4 125.3,238.9 125.4,236.3C125.6,233.7 124.1,232 120.9,231.8L115.7,231.5L116.1,225.2L121,225.5C127.9,225.9 131.6,229.9 131.2,236.8C130.8,243.8 126.5,247.4 119.6,246.9" style="fill-rule:nonzero;"/>
                <path d="M122.5,203.8L101.8,201.8L120.6,210.6L122.5,203.8ZM128.4,204.4L126,213.2L133.4,216.7L131.7,222.7L94,204.2L96.4,195.4L138.3,198.6L136.5,205.2L128.4,204.4Z" style="fill-rule:nonzero;"/>
                <path d="M130.7,190.4L112.3,181C106.2,177.9 104.3,172.6 107.4,166.5C110.5,160.3 115.8,158.8 121.9,161.9L125.2,163.6L122.3,169.2L118.8,167.4C116,166 113.8,166.7 112.7,169C111.5,171.3 112.2,173.5 115.1,174.9L134,184.5C136.8,185.9 139,185.2 140.1,182.9C141.3,180.6 140.6,178.5 137.7,177L133.1,174.6L136,169L140.4,171.2C146.5,174.3 148.4,179.5 145.3,185.7C142.2,191.9 136.9,193.5 130.7,190.4" style="fill-rule:nonzero;"/>
                <path d="M150.5,151.9L132.3,141.9L146,157.4L150.5,151.9ZM155.7,154.8L150,161.9L155.4,168L151.5,172.9L124.2,140.9L129.9,133.8L167.1,153.4L162.8,158.7L155.7,154.8Z" style="fill-rule:nonzero;"/>
                <path d="M175.4,133.1L162,116.9C159.9,114.4 157.7,114.2 155.6,116C153.5,117.8 153.3,119.9 155.3,122.4L168.7,138.6C170.7,141.1 172.9,141.3 175.1,139.5C177.2,137.8 177.4,135.5 175.4,133.1M163.3,142.6L150.4,127C145.9,121.5 146.4,115.9 151.8,111.4C157.3,106.9 162.9,107.4 167.4,112.9L180.3,128.5C184.8,133.9 184.3,139.6 178.8,144.1C173.4,148.6 167.7,148 163.3,142.6" style="fill-rule:nonzero;"/>
                <g>
                    <path d="M196.7,104.8C196,103.3 195,102.3 193.8,101.9C192.8,101.6 191.6,101.7 190.5,102.3C188.8,103.2 187.6,104.7 186.9,107.1C185.7,110.6 186.3,114.5 187.2,116.7C187.9,118.3 189,119.4 190.2,119.9C190.6,120 191,120.1 191.4,120.1C192.1,120.1 192.8,119.9 193.4,119.6C195.2,118.7 196.4,117 197.2,114.6C198.4,110.6 197.7,106.9 196.7,104.8ZM194.3,114.8C194,116.7 193.4,117.3 192.8,117.5C192.6,117.6 192.3,117.6 192.1,117.6C191.7,117.5 191.3,117 191,116.4C190.2,114.7 189.4,110.2 190,106.7C190.3,104.9 190.9,104.4 191.3,104.2C191.6,104.1 191.8,104 192,104.1C192.4,104.2 192.8,104.7 193.2,105.5C193.9,107.2 194.7,112.2 194.3,114.8Z" style="fill-rule:nonzero;"/>
                    <path d="M210.4,84.6C209.7,83 207.7,82.6 206.2,83.2C204,84.1 202.5,85.9 201.6,88.6C200.6,91.9 200.8,95 201.2,98.1L198.4,99.2L198.3,99.3C198.1,99.7 198,100.2 198.1,100.6C198.2,101 198.5,101.2 198.8,101.3L199,101.4L201.5,100.4C201.9,103.4 202.4,106.4 202.8,109.3C203.3,112.3 203.8,115.3 204.1,118.2C204.4,121 203.8,121.3 203.4,121.5C202.7,121.8 201.6,121.7 200.5,121.2C199.9,120.9 199.4,121.1 199.1,121.6C198.8,122.1 198.6,123 198.9,123.9C199.1,124.4 199.9,125.1 201.1,125.1C201.6,125.1 202.1,125 202.7,124.8C204.2,124.2 205.5,122.9 206.3,121C206.5,120.5 207.2,118.4 206.7,114.2C206.1,109.6 205.7,106 205.1,102.2L204.9,101C204.8,100.2 204.7,99.5 204.6,99L208.7,97.3L208.8,97.2C209.2,96.5 209.1,95.6 208.5,95.2L208.3,95.1L204.3,96.8C203.9,93.5 203.6,91 204.2,88.4C204.5,87.1 205,86.1 205.6,85.9C206,85.7 207.1,85.5 208,87.4C208.3,87.9 208.8,88.1 209.3,87.9C209.7,87.7 210,87.2 210.1,86.9C210.6,86.2 210.7,85.3 210.4,84.6Z" style="fill-rule:nonzero;"/>
                </g>
                <path d="M221.9,76.8L241.4,73.2L242.5,79L229.6,81.4L231.6,92.3L241.9,90.4L243,96.2L232.7,98.1L234.9,110.3L247.8,107.9L248.9,113.7L229.4,117.3L221.9,76.8Z" style="fill-rule:nonzero;"/>
                <path d="M261.5,92.3L253.5,72L260.7,72.2L265.8,86.1L271.5,72.4L278,72.5L269.3,92.4L277.6,113.7L270.5,113.6L265,98.6L258.8,113.4L252.4,113.3L261.5,92.3Z" style="fill-rule:nonzero;"/>
                <path d="M283,104.2L287.4,84.1C288.9,77.4 293.5,74.3 300.2,75.7C307,77.2 309.8,81.9 308.3,88.6L307.5,92.2L301.3,90.9L302.1,87C302.8,83.9 301.6,82 299,81.4C296.5,80.8 294.6,82.1 293.9,85.2L289.4,105.9C288.7,109 289.9,110.9 292.5,111.5C295,112.1 296.9,110.8 297.6,107.7L298.7,102.6L304.9,103.9L303.9,108.7C302.4,115.4 298,118.6 291.2,117.1C284.4,115.7 281.5,111 283,104.2" style="fill-rule:nonzero;"/>
                <path d="M323.4,83L341.5,90.9L339.2,96.3L327.2,91.1L322.8,101.2L332.4,105.4L330,110.9L320.4,106.7L315.5,118L327.4,123.2L325.1,128.7L306.9,120.8L323.4,83Z" style="fill-rule:nonzero;"/>
                <path d="M352.9,97.4L358.5,101.1L338.6,130.3L348.9,137.3L345.6,142.3L329.7,131.5L352.9,97.4Z" style="fill-rule:nonzero;"/>
                <path d="M378.4,116.3L383.2,121L358.3,146.1L367.2,154.9L363,159.1L349.4,145.6L378.4,116.3Z" style="fill-rule:nonzero;"/>
                <path d="M400.1,139.6L411.4,155.9L406.5,159.3L399.1,148.5L389.9,154.8L395.9,163.5L391,166.9L385,158.2L374.9,165.2L382.4,176L377.5,179.4L366.2,163.1L400.1,139.6Z" style="fill-rule:nonzero;"/>
                <path d="M418.1,167.9L421.3,175.6L400.7,193.4L424.6,183.4L426.9,188.9L388.9,204.9L386.2,198.6L410.8,177.5L382.4,189.5L380,183.9L418.1,167.9Z" style="fill-rule:nonzero;"/>
                <path d="M400.7,209L421,205.2C427.8,203.9 432.4,206.9 433.7,213.7C435,220.5 431.7,224.9 425,226.2L421.4,226.9L420.2,220.7L424.1,220C427.2,219.4 428.5,217.6 428,215C427.5,212.5 425.7,211.2 422.5,211.8L401.7,215.7C398.6,216.3 397.3,218.1 397.8,220.7C398.3,223.2 400.1,224.5 403.3,223.9L408.4,222.9L409.6,229.1L404.8,230C398,231.3 393.4,228.4 392.1,221.5C390.7,214.7 393.9,210.2 400.7,209" style="fill-rule:nonzero;"/>
                <path d="M436.2,238.1L435.8,257.9L429.9,257.8L430.1,244.7L419,244.5L418.9,255L412.9,254.9L413.1,244.4L400.8,244.2L400.6,257.3L394.6,257.2L394.9,237.4L436.2,238.1Z" style="fill-rule:nonzero;"/>
                <path d="M199.1,371.2C199.3,371.1 204.4,368.6 204.7,368.7C206.6,369 205.1,373.1 202.7,377.8C202.7,377.9 202.4,378.2 202.3,378.3C198.2,380.1 194.1,381.6 189.9,383C184.2,384.9 178.4,386.4 172.4,387.4C170,387.8 167.4,388.1 165,388.4C165,388.4 153.7,389.8 145.6,390.9C138.8,392 138.1,391.3 138.2,390.3C138.5,389.2 140.1,387.2 144.3,385.6C143.8,385.6 148.9,383.8 154.3,382.6C157,382 159.7,381.4 161.7,381.1C163.7,380.7 165.1,380.5 165.1,380.5C167.1,380.3 169,380 171,379.7C176.5,378.8 182,377.3 187.4,375.6C191.3,374.4 195.3,372.9 199.1,371.2" style="fill-rule:nonzero;"/>
                <path d="M300.2,191.9C300.2,192 300.1,192 299.9,191.9C297.7,191.5 294.8,189.8 294.2,186.9C298.8,181 309.6,172.4 318.1,171C327.5,169.5 331.9,176 332.3,176.9C334.1,179.8 334,180.9 333.3,181.2C332.5,181.5 326.6,176.8 319,178.7C312.3,179.9 304.4,186.8 300.2,191.9" style="fill-rule:nonzero;"/>
                <path d="M141.7,391.5C139.9,391.7 136,392.3 135,387.5C134.2,382.6 133.6,380.4 133.2,376.4C132.2,368.9 129.9,360.9 128.6,352.8C127.2,344.6 126.5,336.2 126.7,327.9C127,323.7 127,319.5 127.7,315.4L128.5,309.2L129.8,303.1C131.5,295 133.8,287.1 137,279.2C140.3,271.5 144.5,264.2 149.1,257.3C153.9,250.5 158.9,243.9 164.4,237.8C175.4,225.5 187.8,214.5 201.3,205C204.7,202.6 208.2,200.4 211.8,198.3C213.6,197.2 215.5,196.3 217.3,195.3C219.2,194.3 220.8,193.5 222.6,192.6C229.6,188.9 236.4,184.6 243.5,180.5C247,178.5 250.6,176.4 254.4,174.6C258.2,172.8 262,171 266.6,170C269,169.4 271.6,169.5 274.1,169.8C276.6,170.2 279,171.3 281.1,172.6C283.2,173.9 285,175.5 286.5,177.3C287.3,178.2 288,179.1 288.7,180.1C289.2,180.8 289,180.6 289.1,180.7L290.2,181.7C293.1,184.5 296,187.1 299,189.7C300.5,191 302,192.2 303.5,193.3C305,194.4 306.7,195.5 307.9,196L308.9,195.9C310.1,195.8 311.3,195.7 312.6,195.8C315,196 318.1,196.5 320.6,198.9C321.9,200 322.7,201.6 323.2,203.1C323.6,204.6 323.7,205.7 323.8,206.8C324,209 324.1,211.1 324.1,213.2L324.1,217.4L324,219.4L323.8,223.3C323.8,223.3 323.7,223.7 323.6,224.8C323.4,225.9 323.1,228.1 322.5,230.8C321.8,234.6 320.6,239.4 319.3,243.4C315.2,257.1 314.5,251.1 315.1,242.4C314.9,242.9 315.6,236 315.8,230.1C315.9,227.9 316,225.8 316,224.2L316,221.7L316.3,216.3L316.3,213.5C316.3,211.6 316.2,209.7 316.1,207.9C316,207 315.9,206.1 315.8,205.6C315.7,205.1 315.5,204.9 315.3,204.6C315,204.2 313.9,203.7 312.5,203.6C311.8,203.5 311,203.5 310.2,203.6C309.8,203.6 309.5,203.7 308.9,203.7L307.5,204C307,204.1 306.6,203.9 306.1,203.7L304.7,203.1L303.9,202.7C303.3,202.4 302.8,202.1 302.3,201.8C301.3,201.2 300.4,200.6 299.5,200C296,197.5 293,194.9 289.9,192.1L285.4,188L283,185.6C282.7,185.3 282.4,184.6 282.3,184.5L282,184C281.8,183.7 281.5,183.3 281.3,183C279.2,180.4 276.6,178.4 273.7,177.6C270.8,176.8 268,177.3 264.4,178.6C257.5,181.2 250.7,185.2 243.9,189.2C237.1,193.2 230.2,197.4 222.9,201.1C215.9,204.5 209.5,208.6 203.1,213.2C190.5,222.4 178.8,233 168.6,244.7C158.3,256.4 149.4,269.4 143.6,283.5C138.3,297.8 134.8,313.4 134.5,328.7C134.3,336.4 135.1,344.1 136.4,351.7C137.7,359.4 139.8,366.9 141,375.3C141.5,380.1 142,391.3 141.7,391.5" style="fill-rule:nonzero;"/>
                <path d="M272.7,187.8C277.1,184.1 281.1,190.7 278,193.5C276.4,195 274.7,196.5 273,197.9C271.3,199.3 269.6,200.7 267.8,202C256.3,210.7 244,217.9 232,225.2C220.1,232.5 208.3,239.9 198.5,249.4C188.7,258.9 180.3,270 173.5,281.9C170.1,287.9 167,294 164.5,300.4L163.9,301.9L163.6,302.8L163,304.5L161.8,308C161.8,308 161.5,308.7 161.1,309.8C160.7,310.9 160,312.5 159.3,314.3C158.7,316.1 157.9,318.2 157.2,320.4C156.5,322.5 155.9,324.7 155.2,326.7C153.5,333.4 152.5,335.6 151.8,334.8C151.2,334 150.7,330.3 151,325.8C150.9,326.3 151.2,320.9 152.3,315.5C152.7,312.8 153.5,310.1 153.9,308C154.3,305.9 154.8,304.6 154.8,304.6L156.1,301L156.8,299.2L158.4,295.2C161.2,288.7 164.3,282.3 168,276.2C175.2,264 183.9,252.7 194.3,242.8C204.8,232.9 216.8,225.4 228.7,218.2C240.6,211 252.4,204 263.2,195.8C264.9,194.5 266.5,193.2 268.1,191.9C269.6,190.6 271.1,189.3 272.7,187.8" style="fill-rule:nonzero;"/>
                <path d="M289.9,190.2C290,190.1 290.1,190 290.4,190C292.4,189.6 296.1,190 295.5,195.3C295.5,195.4 295.4,195.8 295.3,195.9C292.2,198.8 289.1,201.8 286,204.8C261.7,228.6 238.6,253.7 217,279.9C211.8,286.6 206.3,293.1 201.3,299.9L193.7,310.1L186.4,320.5L182.8,325.7L179.4,331L172.6,341.7L168.4,349C168.4,349 166.7,351.4 164.5,354.7C162.1,357.9 159.6,362.3 157.2,365.7C149.5,377.6 150.3,371.9 153.5,363.5C153.2,363.9 155.2,359 157.4,354C159.8,349.1 162.2,344.2 162.2,344.2L164.1,340.9L165.9,337.7L167.6,335C172.2,327.9 176.7,320.7 181.6,313.8C191.2,299.8 201.6,286.6 212.3,273.4C233.8,247.4 256.7,222.6 280.8,198.9C283.6,196.1 286.7,193.1 289.9,190.2" style="fill-rule:nonzero;"/>
                <path d="M211.4,331.8C211.5,331.8 210.8,333.5 211,333.6C212.2,334.1 212.1,336.6 213.2,340.1C213.2,340.2 213.3,340.4 213.2,340.5C213.1,340.6 211.8,341.6 209.9,343.2C207.9,344.7 205.3,346.7 202.7,348.6C197.4,352.4 192,355.9 192,355.9C192,355.9 188,357.5 184.9,358.1C179.8,359.3 180.6,356.8 182.7,354.4C182.4,354.4 188,349.2 188,349.2C188,349.2 193.2,345.8 198.3,342.2C200.8,340.4 203.3,338.5 205.2,337C206.9,335.6 211.4,331.9 211.4,331.8" style="fill-rule:nonzero;"/>
                <path d="M297,209.4C297,209.4 297.7,206.9 301.5,207.9C305.5,208.9 304.5,211.4 304.5,211.6C303.2,215.9 301.7,220 300.1,224.1C297.7,230.2 294.9,236.1 292,242C290.9,244.2 289.8,246.3 288.6,248.5C288.6,248.5 287,251.1 284.7,254.4C282.4,257.8 279.3,261.8 276.5,265.1C267.3,276 269,270.3 273,262.5C272.7,262.8 275.2,258.3 277.6,253.5C278.8,251.1 280,248.7 280.8,246.9C281.7,245.1 282.2,243.9 282.2,243.9L285,238.5C287.8,232.9 290.5,227.1 292.8,221.3C294.4,217.3 295.8,213.3 297,209.4" style="fill-rule:nonzero;"/>
                <path d="M217.6,351.6C217.7,351.7 217.7,351.8 217.6,352.1C217.4,353 217.1,354.3 216.2,355.3C215.3,356.2 213.8,356.9 211.1,355.7C211,355.7 210.6,355.4 210.5,355.2C208.2,350.7 207.1,345.4 207.9,340.1C208.7,334.4 212,329.2 216.8,325.9C217.4,325.5 218,325.1 218.7,324.8C219,324.6 219.4,324.5 219.7,324.3L220.2,324.1L220.3,324.1C220.7,324 220.4,324.1 220.5,324C220.5,323.8 220.5,324.5 220.5,323C220.5,321.6 220.5,320.2 220.7,318.9C221.3,314.3 223.2,309.9 226.2,306.3C229.2,302.7 233.2,300.1 237.6,298.6C239.7,297.9 242.2,297.5 244.3,297.4L244.6,296.6C245.8,293 246.9,288.3 251.1,284.5C253.1,282.8 255.7,281.5 258.7,281.3C260.2,281.2 261.9,281.4 263.4,282.1C264.8,282.7 265.7,283.3 266.1,283.5C266.2,283.6 266.1,283.5 266.2,283.5C266,283.6 266.5,283.4 267.2,282.7C268.8,281.3 270.9,280 272.9,279.1C275,278.1 277.2,277.3 279.8,277.1C282.3,276.8 285.5,277.3 288,279.1C288.6,279.5 289.2,280.1 289.7,280.6L290.4,281.4L290.7,281.8L291,282.1C291.4,282.6 290.5,281.5 290.6,281.6L290.7,281.7C291.8,283 292.3,284 292.9,285.2C293.9,287.5 294.5,290 294.6,292.3C294.7,295.7 294,299 292.9,302C292.4,303.5 291.7,304.9 291,306.3L290.4,307.4L290.8,308.2C291.1,308.7 291.5,309.6 291.8,310.4C292.4,311.9 292.9,313.4 293.2,315C293.9,318.1 294.3,321.4 293.5,325C292.4,329.6 289.8,332.9 286.5,335.6C285.7,336.3 284.8,336.8 283.9,337.4L283.1,337.8L283.2,338.1L283.7,339.5C284,340.4 284.3,341.4 284.5,342.3C284.9,344.2 285.2,346.1 285.3,348.1C285.4,352 284.8,356.1 283.2,359.8C279.9,367.3 273,373 264.7,374.3C264.8,373.4 264.5,376.7 263.9,378.4C262.8,382.4 260.2,386.3 256.7,388.8C253.9,390.7 250.8,392 247.7,392.6C246.2,393 244.6,393 243.1,393.2C242.6,393.2 242.8,393.3 242.6,393.3C242.5,393.3 242.4,393.4 242.3,393.4C242.1,393.5 241.8,393.6 241.5,393.9C240.2,394.9 238.7,397.1 236.7,399.4C235.7,400.5 234.4,401.9 232.8,402.8C231.4,403.7 229.9,404.4 228.4,405C225.3,406.1 221.7,406.8 217.9,405.7C214.1,404.7 211,401.5 209.5,398.3C208.7,396.7 208.3,395.1 207.9,393.5C207.7,392.7 207.6,391.9 207.5,391.2L207.3,389.6L207,388L206.9,386.9C206.8,386.8 206.5,386.6 206.1,386.3C206.1,386.3 205.9,386.2 205.7,385.9C205.4,385.6 204.8,385.2 204.1,384.5C202.7,383 201.5,380.5 201.3,377.9C201,375.3 201.3,372.9 201.7,370.4C202.1,367.8 203.2,365 205,363.1C207.7,360.2 210,359 211.4,358.6C212.9,358.2 213.3,358.6 213.1,359.1C212.9,359.6 212.2,360.3 211.3,361.4C210.4,362.5 209.3,364.1 208.4,365.8C208.5,365.7 208.4,365.9 208.3,366.2C208.1,366.6 207.9,367.2 207.8,367.9C207.6,368.6 207.5,369.5 207.5,370.6C207.5,371.7 207.5,373 207.7,374.2C207.9,376.6 208.7,378.4 209.4,378.9C209.8,379.2 211.8,380.4 211.8,380.5C212.8,381.3 214,382.6 214.4,384.1C214.7,384.8 214.8,385.7 214.8,386.3L214.9,387.6L215,389L215.1,390.3C215.2,390.9 215.3,391.5 215.4,392C215.6,393.1 215.9,394.1 216.4,395C217.2,396.7 218.4,397.7 219.9,398.2C221.4,398.7 223.4,398.5 225.4,397.7C226.4,397.3 227.4,396.8 228.3,396.3C229.1,395.8 229.7,395.2 230.5,394.3C232.1,392.5 233.5,390 236.6,387.6C237.4,387 238.3,386.5 239.3,386.1C239.8,385.9 240.4,385.7 241,385.6L242.5,385.4C243.7,385.2 244.9,385.2 246,384.9C248.3,384.5 250.3,383.6 252,382.5C254,381 255.5,378.9 256.2,376.4C256.4,375.8 256.5,375.1 256.6,374.4C256.7,374 256.7,374 256.7,372.9C256.7,372 256.6,371.1 256.6,370.2C254.6,364.8 260.3,367.2 263.4,366.6C268.6,365.9 273.6,361.9 275.7,356.9C276.8,354.3 277.3,351.5 277.2,348.6C277.1,347.2 276.9,345.7 276.6,344.3C276.5,343.6 276.2,342.9 276,342.2L275.6,341.2L275.3,340.3C275.2,339.9 274.9,339.5 274.8,339.1L272.3,334.4L271.7,333.2L273,332.8L275.7,332.1C276.6,331.8 277.6,331.6 278.3,331.3L279.4,330.8L279.8,330.6C280.4,330.3 280.9,329.9 281.4,329.5C283.4,328 285.1,325.5 285.6,323.4C286,321.6 285.8,319.2 285.3,316.9C285,315.7 284.7,314.6 284.2,313.5C284,313 283.8,312.6 283.4,311.9L281.9,308.9C281.7,308.3 281.1,307.6 281.1,307L282.2,305.2L283.7,302.7C284.2,301.6 284.8,300.5 285.2,299.4C286,297.2 286.5,294.9 286.4,292.8C286.3,291.3 286,289.9 285.5,288.6C285.2,288 284.8,287.3 284.6,287.1L284,286.3L283.8,286C283.6,285.9 283.5,285.7 283.3,285.6C282.6,285.2 281.7,284.9 280.4,285C279.1,285.1 277.6,285.6 276.2,286.3C274.7,287 273.4,287.8 272.1,289C271.7,289.3 271.2,289.7 270.6,290.1C270.1,290.5 269,291 268.2,291.3C266.4,291.9 264.2,291.6 262.6,290.7C261.3,290.1 260.5,289.5 260.2,289.4C259.9,289.3 259.6,289.2 259.1,289.2C258.3,289.2 257.1,289.7 256.2,290.5C254.4,292 253.2,295.2 252.1,298.9L251.9,299.6C251.8,299.8 251.6,300.5 251.5,300.9C251.1,301.8 250.6,302.6 250,303.3C248.7,304.7 246.8,305.3 244.9,305.3C243.1,305.4 241.7,305.6 240.1,306.1C234,308.1 229.4,313.5 228.6,319.9C228.5,320.8 228.4,321.8 228.4,322.7C228.4,322.9 228.5,324.2 228.7,325.2L229.4,328.7L229.6,329.6C229.6,329.7 229.7,329.9 229.7,330L229.3,330.1L227.5,330.4C226.3,330.6 225,330.8 224.1,331.1L223.4,331.3C223.2,331.4 223.2,331.4 223.1,331.4C222.9,331.5 222.7,331.6 222.5,331.7C222.1,331.9 221.8,332.1 221.4,332.4C218.5,334.3 216.4,337.6 216,341.1C215.2,344.6 215.9,348.3 217.6,351.6" style="fill-rule:nonzero;"/>
                <path d="M284.1,286C284,285.9 283.9,285.8 283.8,285.5C283.3,283.6 283.1,279.6 288.6,279.8C288.7,279.8 289,280 289.1,280.1C292.5,283.1 295.8,285.9 299,289C305.7,295.5 312.1,302.4 318,309.7C323.9,317 329.4,324.8 333.7,333.4C335.8,337.8 337.7,342.3 338.7,347.3C339.8,352.5 339.9,356.7 340.8,361.1C341.6,365.3 342.8,369.7 344.8,371.7C345.3,372.2 346.1,372.7 347.1,373.6C348.1,374.4 349.4,375.6 350.3,376.9C351.2,378.1 352.1,379.9 352.3,381.8C352.6,383.7 352.2,385.7 351.4,387.3C349.9,390.6 346.8,392.9 343.5,393.7C341.9,394.1 340,394.1 338.6,393.8C337.6,393.6 336.5,393.5 335.5,393.5C331.4,393.3 327.3,393.8 323.6,395.2C321.7,395.9 320.3,396.8 318.2,398.2C316.2,399.4 314.2,400.7 312.1,401.8C307.9,404.1 303.4,406.1 298.8,407.6C289.6,410.7 280,412 270.6,412.4L267.5,412.5L261.5,412.5C261.5,412.5 260.7,412.4 259.4,412.3C258.1,412.1 256.3,411.9 254.2,411.6C250.1,411.1 244.9,410 240.8,409C226.7,405.5 232.8,404.5 241.6,404.7C241.1,404.6 246.4,404.7 251.8,404.8C254.5,404.8 257.2,404.7 259.2,404.7C261.2,404.6 262.6,404.5 262.6,404.5L268.2,404.5L273.3,404.3C282.1,403.7 290.7,402.1 298.8,399.2C302.8,397.7 306.7,395.8 310.4,393.6C312.3,392.5 314.1,391.3 316.1,390.1C318.3,388.7 320.8,387.7 323.2,386.9C328.2,385.4 333.3,385.2 338.3,385.7L340.1,385.9C340.4,385.9 340.7,386 341,385.9C341.6,385.9 342.2,385.7 342.7,385.5C343.7,385 344.4,384 344.5,383.2C344.5,382.8 344.5,382.5 344.3,382.1C344.1,381.7 343.6,381 343.2,380.5C342.7,380 342,379.5 340.9,378.7C339.8,377.9 338.7,376.7 337.8,375.5C336,373 335.1,370.5 334.4,368.1C333.7,365.7 333.2,363.3 332.8,361C332.4,358.7 332.1,356.3 331.9,354C331.8,352.8 331.6,351.8 331.4,350.8L330.8,347.8C330.3,345.8 329.5,343.8 328.9,341.8L326.3,335.9C322.4,328.2 317.2,321 311.6,314.1C306,307.2 299.9,300.7 293.5,294.4C290.4,291.8 287.3,288.8 284.1,286" style="fill-rule:nonzero;"/>
                <path d="M299.8,319.2C301.1,320.2 301.5,321.4 302.7,322.9C303.4,323.7 305.4,326.1 307.3,328.1C309.3,330.1 311,331.9 311,331.9C311,331.9 312.8,333.7 314.8,335.6C316.8,337.5 319.1,339.6 319.9,340.3C321.4,341.5 322.6,342 323.5,343.3C322.7,341.9 322.7,340.6 321.9,338.7C321.7,338.2 321.2,337.2 320.6,336.1C319.9,335 319.1,333.7 318.2,332.5C316.4,330.2 314.5,328.3 314.5,328.3C314.5,328.3 312.6,326.4 310.3,324.6C309.1,323.7 307.9,322.9 306.7,322.2C305.6,321.5 304.6,321.1 304.1,320.8C302.5,320.2 301.2,320.1 299.8,319.2" style="fill-rule:nonzero;"/>
                <path d="M293.9,394.3L294.2,394.3C294.7,394.4 295.3,394.4 295.5,394.4C295.7,394.4 295.4,394.3 294.3,394.8C294.2,394.8 294,394.9 294,394.9C291.5,395.6 289,396.1 286.5,396.5C276.8,398.1 267,398.3 257.2,397.4L252.9,396.9C252.9,396.9 251.2,396.5 248.8,396C246.5,395.5 243.6,394.6 241.2,394C237.2,392.9 235.9,392.7 236.4,392.8C236.8,392.9 239,393 241.5,393.1C241.2,393.1 244.3,393.1 247.5,393.2C249.1,393.2 250.7,393.2 251.9,393.1C253.1,393.1 253.9,393 253.9,393L257.5,393.1C267.1,393.3 276.7,393.5 286.3,393.8C288.8,394.1 291.3,394.2 293.9,394.3" style="fill-rule:nonzero;"/>
                <path d="M280.8,345.3C282.2,345.7 282.8,346.9 284,348.2C284.4,348.5 285,349.2 285.9,350C286.8,350.8 287.8,351.7 288.8,352.5C290.8,354.2 292.8,355.6 292.8,355.6C292.8,355.6 294.7,357 296.9,358.4C298,359.1 299.2,359.8 300.3,360.4C301.3,361 302.3,361.4 302.7,361.6C304.4,362.3 305.6,362.4 306.9,363.2C305.8,362.2 305.4,361 304.3,359.5C303.7,358.7 301.7,356.5 299.7,354.7C297.7,352.9 295.7,351.5 295.7,351.5C295.7,351.5 293.8,350 291.4,348.7C290.2,348 288.9,347.4 287.8,346.9C286.7,346.4 285.7,346.1 285.2,345.9C283.5,345.5 282.3,345.6 280.8,345.3" style="fill-rule:nonzero;"/>
                <path d="M337.5,381.1C331.1,380.9 326.8,379.5 319.2,378.6C317.9,378.5 315.8,378.2 311.5,377.7C308,377.3 299.6,376.5 299.6,376.5C299.6,376.5 292.6,375.7 288.7,375.3C285.8,375 283.5,374.7 281.7,374.5C279.9,374.3 278.5,374.1 277.6,374C273.9,373.5 270.9,373.3 268,372.9C265.2,372.6 262.5,372 259.5,370.9C265.4,373.3 269.3,375.7 276.8,377.7C278.7,378.2 282.2,379.1 288,380.1C290,380.4 292.7,380.8 295,381.1C297.3,381.3 299,381.5 299,381.5C299,381.5 301.1,381.7 303.7,381.9C306.3,382.1 309.3,382.2 311.1,382.3C315.5,382.4 317.6,382.4 318.9,382.4C326.7,382.3 331.1,381.2 337.5,381.1" style="fill-rule:nonzero;"/>
                <path d="M292.3,335.8C296.7,340.7 299.6,344 305.4,348.8C306.4,349.6 308,350.9 311.2,353.8L311.3,353.8C311.3,353.8 311.2,353.8 311.4,353.9C315.1,357.2 318.1,360.1 319.5,361.5C324.8,366.9 328.2,369.4 333.4,373.6C330.8,367.6 328.5,363.6 323,358C321.5,356.5 318.5,353.6 314.7,350.2L314.6,350.1C311.3,347.2 309.6,345.8 308.6,345C302.5,340.1 298.4,338.1 292.3,335.8" style="fill-rule:nonzero;"/>
                <path d="M249.6,325.2C249.8,327.2 250.3,329.3 250.7,330.5C252.1,329.4 254.6,327.1 256.7,324.7C259.3,321.2 263.7,315.2 264,314.7C265,312.4 267.6,305.4 267.6,303.3L265.5,301.3C259,305.3 252.1,309.9 250.7,311.3C250.4,313 249.9,319.5 249.6,325.2M250.1,335.7C249,335.7 246.1,335.7 245,325.5L245,325.1C245.2,322 245.8,311.6 246.4,309.7C246.7,308.8 247.2,307.1 264.7,296.4C265.6,295.9 266.7,296 267.5,296.7L271.2,300.3C274.5,303.5 268.2,316.8 268.1,316.9C268,317.1 267.8,317.4 260.3,327.6C253.1,335.7 250.8,335.7 250.1,335.7" style="fill-rule:nonzero;"/>
                <path d="M242.7,322.3C241.7,322.7 238.8,327.1 236.8,331.5C234.2,336.1 231.4,341.7 231.2,342.9C231.2,343.8 231,344.8 230.7,345.9C230.7,346.1 230.6,346.3 230.6,346.5C233.4,345.3 238.8,342.3 243.5,339.4L243.8,338.9L243.3,324.8C243.4,323.7 243,322.4 242.7,322.3M229,351.7C228.7,351.7 228.5,351.6 228.3,351.6C224.8,350.7 225.8,346.8 226.2,344.9C226.4,344.2 226.6,343.4 226.6,342.9C226.6,340.5 230.4,333.4 232.7,329.4C235.1,324.1 238.9,317.6 242.7,317.6L242.8,317.6C246.5,317.7 248.1,321.4 248,324.8L248.5,339.4C248.5,339.9 248.4,340.3 248.1,340.7L247.1,342.3C246.9,342.6 246.7,342.8 246.4,343C233.9,350.7 230.4,351.7 229,351.7" style="fill-rule:nonzero;"/>
                <path d="M241.7,347.5C237.6,349.5 233.6,351.6 232.9,352.3C232.8,352.4 232.3,353.1 231.6,354C230,356.1 226.7,360.4 226.4,362.5C225.4,368.8 226.2,374.7 227.6,375.1C229.4,375.7 232.5,373.5 234,372.1L237.9,362.2L241.1,351.3C241.3,350.2 241.5,348.7 241.7,347.5M228.1,379.9C227.4,379.9 226.7,379.8 226,379.6C219.7,377.5 221.3,364.5 221.7,361.9C222.2,358.8 225,354.9 227.9,351.2C228.4,350.5 228.9,350 229.1,349.7C229.4,349.2 230.3,347.7 242.6,342C243.5,341.6 244.5,341.8 245.1,342.4C245.7,342.9 247.4,344.5 245.3,352.8L242,363.9L237.9,374.4C237.8,374.7 237.6,374.9 237.4,375.2C236.9,375.7 232.7,379.9 228.1,379.9" style="fill-rule:nonzero;"/>
                <path d="M241.3,370.5C241.5,370.7 241.7,371 242,371.3C242.4,371 242.8,370.6 243.1,370.2C243.2,370.1 243.2,370 243.3,370L248.8,364.7L258.4,354.3C258.5,354.2 258.6,354.1 258.7,354C258.8,353.9 258.9,353.6 258.8,353.3C258.4,352.2 254.7,346.6 251.2,341.5L248.8,342C248.1,343.5 247.1,347.5 246.4,350.9L242.5,364.9L241.3,370.5ZM241.8,376.1C241.1,376.1 240.4,375.9 239.8,375.5C237.7,374.1 236.9,372 236.8,371.7C236.6,371.3 236.6,370.8 236.7,370.4L238,363.9L241.9,349.9C244.3,338.7 245.7,338.2 246.7,337.8C246.8,337.8 246.9,337.7 247,337.7L251.7,336.8C252.6,336.6 253.5,337 254,337.7C257.2,342.2 262.6,350.1 263.1,352.2C263.8,354.8 262.5,356.7 261.6,357.5L252,367.9L246.6,373.2C245.4,374.7 243.6,376.1 241.8,376.1" style="fill-rule:nonzero;"/>
                <path d="M252.2,336.5C255.7,338.1 259.9,339.7 261.8,339.4C266.1,338.9 267,337.9 267,337.9C267.3,337.3 268.7,333 269.8,329.2L270.1,319.1C270.4,317.4 270.5,315.7 270.4,314.6C270,314.9 269.5,315.3 269.1,315.7L255.7,333.4C255.6,333.5 255.5,333.7 255.3,333.8L252.2,336.5ZM261.5,344.1C256.6,344.1 248.6,339.9 247,339.1C246.3,338.7 245.9,338.1 245.8,337.3C245.7,336.5 246,335.8 246.6,335.3L252.2,330.5L265.6,312.8C266.5,311.8 269.3,309.2 272.1,309.7C274.8,310.2 275.6,313.5 274.6,319.6L274.3,329.7C274.3,329.9 274.3,330.1 274.2,330.3C272.4,336.2 271.3,339.7 270.8,340.5C269.6,342.3 266.8,343.5 262.3,344C262,344.1 261.8,344.1 261.5,344.1" style="fill-rule:nonzero;"/>
                <path d="M327,335.4C326.9,335.3 326.8,335.2 326.7,335C326,333.1 326.1,329.8 331,329.8C331.1,329.8 331.5,329.8 331.6,329.9C333.1,331.1 334.5,332.3 336.2,333.4C337.8,334.5 339.3,335.6 341,336.6C351.1,342.9 362.1,348 373.3,352.5C384.5,357 396,360.8 407.7,364C419.1,367.3 431.1,368.3 443.1,368.4C449.1,368.4 455.2,368.2 461.2,368L468.8,367.7C468.8,367.7 471.6,367.8 475.3,368C479,368.2 483.8,368.7 487.7,369.4C491,370 493.1,370.7 494.3,371.2C495.5,371.7 495.7,372.2 495.3,372.4C494.5,373 491.2,373.1 487.2,373.3C487.6,373.4 482.9,373.5 478,373.9C473.1,374.4 468.1,374.8 468.1,374.8L459.3,375.2C453.3,375.5 447.2,375.6 441.1,375.5C428.9,375.3 416.4,374 404.6,370.5C392.9,367.2 381.4,363.4 370.1,358.8C358.8,354.3 347.7,349.1 337.2,342.6C335.4,341.6 333.8,340.3 332.1,339.2C330.2,338.1 328.6,336.8 327,335.4" style="fill-rule:nonzero;"/>
                <path d="M495.3,371.9C493.8,368.3 492.7,366.2 489.7,364.1C488.1,363 483.4,359.7 480.6,355.6C479.1,353.6 477.9,351.4 477,349.7C476.1,348 475.5,346.9 475.5,346.9C475.5,346.9 474.9,345.8 473.9,344C472.9,342.2 471.6,339.8 469.8,337.3C468.1,334.8 465.9,332.3 463.8,330.5C461.7,328.7 459.8,327.4 458.9,326.9C455.4,324.8 452.7,325 448.9,325.9C450.9,329.2 452.2,331.2 455,333C456.6,334 461,337.2 463.8,341.5C465.3,343.6 466.5,345.8 467.5,347.5C468.4,349.2 469,350.3 469,350.3C469,350.3 469.6,351.4 470.5,353.2C471.5,355 472.8,357.5 474.6,360C478.2,365.2 483.8,369 485.5,370.1C488.9,372.2 491.4,372.2 495.3,371.9" style="fill-rule:nonzero;"/>
                <path d="M479.6,378.3C474.9,379.2 471,379.9 467.1,381.1C463.1,382.1 459,383.1 453.9,384.9C452.1,385.4 449.3,386.1 443.3,387.8C440.7,388.5 437.2,389 433.4,389.7C431.5,390.1 429.5,390.3 427.5,390.5C425.5,390.7 423.5,390.9 421.6,391.1C417.8,391.3 414.3,391.2 411.8,391.3C410.5,391.4 409.5,391.2 408.8,391.2C408.1,391.1 407.7,391.1 407.7,391.1C407.7,391.1 406.4,391 404.2,390.8C403.1,390.7 401.8,390.7 400.4,390.5C399,390.3 397.4,390 395.7,389.8C389,388.9 381.2,386.6 375.6,384.8C367.9,382 363.4,379.6 361,378.5C351.5,373.5 346,371 337.4,366.8C342.9,374.5 347.7,379.5 357.7,384.8C360.2,386 365,388.5 373.2,391.5C379.1,393.5 387.5,395.9 394.5,396.8C396.3,397.1 397.9,397.3 399.4,397.6C400.9,397.8 402.3,397.8 403.4,397.9C405.7,398.1 407.1,398.2 407.1,398.2C407.1,398.2 407.5,398.2 408.3,398.3C409,398.4 410.1,398.5 411.5,398.4C414.2,398.3 417.9,398.4 421.9,398.2C423.9,398 426,397.8 428.1,397.6C430.2,397.4 432.3,397.2 434.3,396.8C438.3,396 442,395.5 444.8,394.8C451.1,393.1 454.1,392.3 455.9,391.8C461.2,389.8 465.3,388.1 468.9,386C472.7,383.7 475.9,381.2 479.6,378.3" style="fill-rule:nonzero;"/>
                <path d="M335.7,354.1C335.6,354 335.5,354 335.5,353.8C334.9,352.4 334.4,349.7 338.3,349.2L338.8,349.2L346.8,354.3C353.4,358.5 360.2,362.3 367.3,365.3C374.4,368.3 381.9,370.7 389.4,372.7C391.1,373.2 392.8,373.6 394.5,374C394.5,374 396.5,374.7 399.3,375.6C402.1,376.5 405.6,377.7 408.5,378.6C418.4,381.8 414.2,382.2 407.7,381.7C408,381.8 404.2,381.4 400.3,380.7C398.3,380.4 396.4,380.1 394.9,379.8C393.4,379.5 392.4,379.4 392.4,379.4C390.9,379.1 389.4,378.7 387.9,378.3C380.2,376.2 372.5,373.8 365,370.6C357.5,367.5 350.4,363.5 343.7,359.2L335.7,354.1Z" style="fill-rule:nonzero;"/>
                <path d="M335.5,264.2C333.4,260.8 331.6,258.7 327.6,257.5C325.4,256.9 318.9,255 312.4,255.2C309.2,255.2 305.9,255.8 303.5,256.7C297.2,259.4 296.2,262.5 295.9,263C297.4,262.8 291.7,263.3 287.4,265.4C285.2,266.5 282.7,268.2 281.4,270.8C280.7,272 280.4,273.2 280.3,274.4C280.3,275.8 280.3,276.6 280.4,277.5C280.6,278.9 281.1,279.3 281.6,280.3C282.2,281.1 282.8,281.8 283.5,282.3C284.8,283.4 286.6,284 288.4,284.6C288.3,282.5 288.2,281 288,279.6C288,279.4 286.7,276.7 287.7,274.2C287.9,273.6 289,272.7 290.5,272C293.7,270.5 296.3,270.1 300.9,269.8C301.3,268.7 302.9,264.8 306,263.5C307.5,263 309.8,262.5 312.5,262.5C317.8,262.3 323.7,264 325.6,264.5C329.2,265.4 331.6,265.1 335.5,264.2" style="fill-rule:nonzero;"/>
                <path d="M443.6,335.8C446.3,338.8 448.1,341.7 450.2,344.5C452.4,347.4 454.5,350.2 457.2,353.8C457.6,354.3 458.5,355.7 458.2,355.3L457.8,355.3C456.9,355.3 456,355.3 455.1,355.4C453.2,355.4 451.3,355.6 449.2,355.3C447.1,355.1 445,355 442.8,354.8C441.7,354.7 440.6,354.6 439.4,354.5C438.3,354.3 437.1,354.1 436,354C433.7,353.6 431.3,353.3 428.9,352.9C426.5,352.5 424.2,351.8 421.8,351.3C417,350.3 412.4,348.8 407.9,347.5C403.4,346.2 399.3,344.5 395.5,343.2C391.7,341.7 388.3,340.2 385.5,339.1C379.9,336.5 376.4,334.9 376.4,334.9C376.4,334.9 375.7,334.6 374.3,333.9C373,333.2 371.1,332.3 368.7,331C364,328.6 357.5,325 350.5,320.7C343.5,316.4 335.7,311.3 328.9,306C322,300.5 315.7,294.7 311.9,289.1C310.9,287.7 310.2,286.4 309.5,285.3C309,284.3 308.6,283.2 308.4,282.3C308,280.5 308.2,279.3 308.4,278.6C308.8,277.1 309.6,276.1 310.8,275.2C311.3,274.7 312.1,274.4 312.7,274L314.9,273C317.9,271.8 321.2,271 325.2,270.1C321.3,269 317.8,268.3 313.9,268.5C312.9,268.6 311.9,268.8 310.9,269C309.9,269.4 308.8,269.6 307.7,270.3C305.6,271.4 303.2,273.7 302.4,276.9C302,278.4 301.7,280.8 302.3,283.5C302.6,284.9 303.1,286.4 303.9,288C304.7,289.5 305.6,291 306.7,292.6C311.1,299 317.9,305.1 324.9,310.7C332.2,316.4 340,321.4 347.2,325.9C354.4,330.2 361,333.9 365.8,336.4C368.2,337.6 370.1,338.6 371.5,339.3C372.9,339.9 373.6,340.3 373.6,340.3C373.6,340.3 377.2,342 382.9,344.6C385.8,345.8 389.3,347.3 393.2,348.8C397.2,350.2 401.4,351.9 406,353.3C410.6,354.7 415.4,356.2 420.3,357.2C422.8,357.7 425.2,358.4 427.7,358.8C430.2,359.2 432.6,359.6 435,360C436.2,360.2 437.4,360.4 438.6,360.6C439.8,360.7 441,360.8 442.1,360.9C444.4,361.1 446.7,361.2 448.8,361.4C451,361.6 453,361.5 455,361.5C457.7,361.4 460.2,361.4 462.6,361.3C464.7,360.8 467.4,361.1 466.1,358.6C465.9,357.8 465.8,357 465.6,356.3C465.3,355.5 465,354.8 464.7,354.2C463.1,351.1 462.6,350.9 462.1,350C459.1,346 456.2,343.4 453.3,341.2C450.4,339.1 447.4,337.2 443.6,335.8" style="fill-rule:nonzero;"/>
                <path d="M337.1,271.5C337.2,271.5 337,271.6 336.7,271.7C329.7,275.2 324.5,281.9 322.7,289.5C322.2,291.8 322.1,293.5 322.5,295C323.1,297 324.7,298.8 326.3,300.3C326.4,300.4 326.6,300.6 326.7,300.7C328.2,299.7 328.8,297.3 329.4,294.9L329.5,294.5C330.7,289.6 332.7,284.8 335.6,280.2C338.1,276.2 339.1,273.7 337.3,271.9C337.3,271.6 337.1,271.5 337.1,271.5M326.5,305.3C326.2,305.3 325.8,305.3 325.5,305.2C324.3,304.9 323.5,304.2 323,303.7C321,301.8 318.8,299.4 317.9,296.3C317.2,294 317.3,291.5 318,288.4C320.1,279.5 326.3,271.6 334.5,267.5C335,267.2 336,266.8 337.2,266.8C338.5,266.8 339.8,267.4 340.8,268.5C345.4,273.3 341.7,279.4 339.7,282.6C337.1,286.8 335.2,291.2 334.2,295.6L334.1,296C333.4,299.1 332.4,303 329,304.8C328.1,305.1 327.3,305.3 326.5,305.3" style="fill-rule:nonzero;"/>
                <path d="M339.1,272.5C338.8,272.5 338.5,272.4 338.2,272.3C337,271.8 336.4,270.4 336.9,269.2C339.2,263.3 346.7,261 352.4,262.1C356.4,262.9 358.9,265.5 358.8,268.8C358.8,270.1 357.7,271.1 356.4,271.1L356.3,271.1C355,271.1 354,270 354,268.6C354,267.4 352,266.9 351.4,266.7C347.7,265.9 342.7,267.5 341.3,270.8C341,271.9 340.1,272.5 339.1,272.5" style="fill-rule:nonzero;"/>
                <path d="M358.1,271C355.3,272.2 353.5,274.8 352.4,276.7C351,279.3 350.1,282.3 349.2,285.4L347.2,292.5C346.7,294.2 346.2,295.9 346.2,297.5C346.2,299 346.7,300.2 347.5,300.9C347.9,301.2 348.3,301.4 348.7,301.3C349,301.2 349.5,300.9 349.7,300.7C353.1,298.2 355.3,294.2 357.3,290.3C359.8,285.5 362.2,280.3 362.9,274.9L363,274.2C363.1,273.4 363.4,271.3 363,270.8C362.1,270 359.7,270.2 358.1,271M348.6,306C347.2,306 345.8,305.5 344.6,304.5C342.7,302.9 341.6,300.4 341.5,297.5C341.5,295.2 342.1,293 342.6,291.1L344.6,284C345.5,280.8 346.5,277.5 348.1,274.4C349.5,271.8 352,268.4 356,266.6C358.4,265.5 363.3,264.5 366.2,267.4C368.3,269.5 367.9,272.7 367.5,274.8L367.4,275.5C366.6,281.6 364,287.3 361.4,292.5C359.3,296.7 356.6,301.3 352.5,304.5C351.8,305 350.9,305.6 349.8,305.9C349.5,306 349,306 348.6,306" style="fill-rule:nonzero;"/>
                <path d="M361.5,293.8M359.8,329.2C359.2,329.2 358.5,328.9 358.1,328.5C357.2,327.5 357.2,326 358.2,325.1C359.9,323.5 361.4,321.7 362.7,319.8C363,319.3 363.3,318.8 363.5,318.3C363.7,317.9 363.9,317.5 364.1,317C366.6,312.3 365.4,309.6 364.1,306.7C363.2,304.7 362.2,302.4 363,299.9C363.5,298.3 363.3,297 362.6,295.9C362,295.1 361.1,294.6 360.7,294.5C359.9,294.9 359,294.8 358.3,294.3C357.2,293.5 357,292 357.8,291C358.9,289.5 361.1,289.3 363.4,290.5C366.4,292 369.3,295.7 367.7,301.2C367.4,302.1 367.9,303.1 368.6,304.8C370,308 371.9,312.5 368.4,319.2C368.2,319.5 368.1,319.9 367.9,320.2C367.6,321 367.2,321.7 366.7,322.4C365.2,324.6 363.5,326.7 361.6,328.5C361,329 360.4,329.2 359.8,329.2" style="fill-rule:nonzero;"/>
                <path d="M343.6,317.9L343.4,317.9C342.1,317.8 341.1,316.6 341.3,315.3C341.8,310.1 343.9,305.7 347.7,301.9C348.6,301 350.1,301 351.1,301.9C352,302.8 352,304.3 351.1,305.3C348.1,308.3 346.5,311.6 346.1,315.8C346.1,316.3 345.8,318.8 345.5,319.2C344.9,319.6 344.3,317.9 343.6,317.9" style="fill-rule:nonzero;"/>
                <path d="M379.3,301.4C378.7,301.4 378.1,301.2 377.6,300.7C376.7,299.8 376.7,298.4 377.7,297.5C380.4,294.9 384.1,290.7 385.7,288.1C386.2,287.3 386.7,286.4 386.8,285.6C386.4,284.6 384.3,281.9 381.7,280.8C380.1,280.2 378.7,280.3 377.4,281.1C375,282.5 372,288.7 370,292.9C369.1,294.8 368.3,296.5 367.6,297.7C366.9,298.8 365.5,299.2 364.3,298.6C363.2,297.9 362.8,296.5 363.4,295.3C364.1,294.2 364.8,292.6 365.7,290.8C368.3,285.4 371.3,279.2 374.9,277C378.1,275.1 381.8,275.1 385.3,277.2C388.7,279.3 391.7,283.2 391.6,285.5C391.5,287.4 390.7,289 389.8,290.5C387.6,294.1 383.2,298.7 381.1,300.7C380.5,301.2 379.9,301.4 379.3,301.4" style="fill-rule:nonzero;"/>
                <path d="M381.2,339.4L380.9,339.4C379.6,339.2 378.7,338 378.9,336.7C379.7,330.9 381.8,326.4 383.6,322.8C384.8,320.3 385.8,318.2 386.1,316.3C386.5,313.5 386.2,310.6 385.9,308.2C385.7,306.7 385.4,305 384.7,303.5C384.1,302.2 383.2,301.2 382.2,300.8C381.7,300.6 381.3,300.6 381.2,300.7C380.9,300.9 379,303.1 377.4,304.8C371.4,311.3 369.9,312.7 368.4,312.9C367.1,313.1 365.9,312.3 365.6,311C365.4,309.8 366.1,308.7 367.2,308.3C368.3,307.6 371.8,303.8 373.9,301.5C377.5,297.6 378.4,296.6 379.3,296.2C380.7,295.6 382.4,295.6 384.1,296.3C386.2,297.2 387.9,299 389,301.4C389.9,303.4 390.3,305.5 390.6,307.4C391,310 391.3,313.5 390.8,316.9C390.4,319.5 389.2,322.1 387.9,324.8C386.2,328.3 384.3,332.2 383.6,337.3C383.5,337.8 383.5,339.8 383.1,340.2C382.6,340.7 381.8,339.4 381.2,339.4" style="fill-rule:nonzero;"/>
                <path d="M413.2,327.9C411.9,327.9 410.8,326.9 410.8,325.6C410.8,324.4 410.6,323.2 410.4,322C410.3,321.4 410.2,320.8 410.1,320.2C409.9,318.5 409.8,316.8 409.7,315.1C409.6,313.4 409.5,311.9 409.3,310.3C409.2,309.6 409.1,308.9 408.8,308.4C408.5,307.9 407.9,307.5 407.5,307.2C406.6,306.6 406.1,306.5 405.9,306.5C405.5,306.5 404.9,306.9 404.4,307.2C404.2,307.3 403.5,307.9 402.4,308.8C398.9,311.6 393,316.3 389.6,318.3C388.4,318.9 387,318.5 386.4,317.4C385.8,316.3 386.2,314.8 387.3,314.2C390.4,312.5 396.3,307.7 399.5,305.2C400.8,304.2 401.7,303.4 401.9,303.3C402.8,302.7 404.1,301.9 405.7,301.9C407.6,301.8 409.2,302.7 410.2,303.4C411,303.9 412.1,304.7 412.8,306C413.6,307.2 413.8,308.6 414,309.8C414.3,311.6 414.4,313.3 414.4,315C414.5,316.6 414.6,318.1 414.8,319.7C414.9,320.3 415,320.8 415.1,321.4C415.3,322.8 415.6,324.2 415.6,325.8C415.6,326.8 414.6,327.9 413.2,327.9Z" style="fill-rule:nonzero;"/>
                <path d="M400.5,309.6C400,309.6 399.6,309.5 399.2,309.2C398.1,308.5 397.8,307 398.6,305.9C400.6,303 405.3,295.4 405.8,294.5C408,289.7 405.9,286.3 403.7,284.3C400.1,281 394.8,280 392.6,281.2C392.1,281.5 391.9,281.7 391.5,282.2C391.2,282.6 390.8,283 390.3,283.4C389.3,284.3 387.8,284.2 386.9,283.2C386,282.2 386.1,280.7 387.1,279.8C387.4,279.5 387.7,279.2 387.9,279C388.5,278.4 389.1,277.7 390.2,277.1C394.5,274.6 402,276.3 406.9,280.8C411.6,285.1 412.8,290.8 410.1,296.5C409.6,297.7 404.4,305.8 402.5,308.6C402,309.3 401.2,309.6 400.5,309.6" style="fill-rule:nonzero;"/>
                <path d="M405.8,351.2C404.8,351.2 403.9,350.6 403.6,349.6C399.4,337.7 405.7,332.1 409,329.1C409.7,328.5 410.5,327.7 410.7,327.4C411,326.1 412.2,325.3 413.5,325.6C414.8,325.9 415.6,327.2 415.3,328.5C415,330.2 413.7,331.3 412.2,332.7C409,335.6 405,339.2 408.1,348.1C408.5,349.3 407.9,350.7 406.6,351.1C406.3,351.2 406.1,351.2 405.8,351.2" style="fill-rule:nonzero;"/>
                <path d="M381.8,280.4C380.6,280.4 379.5,279.5 379.4,278.2C379.1,275.5 377.5,273.9 376.2,273C373.5,271.3 369.7,271 365.9,272.3C364.7,272.7 363.3,272.1 362.9,270.8C362.5,269.6 363.1,268.2 364.4,267.8C369.5,266 374.9,266.5 378.8,269C381.9,271 383.8,274.1 384.1,277.7C384.2,279 383.3,280.2 381.9,280.3C381.9,280.4 381.8,280.4 381.8,280.4" style="fill-rule:nonzero;"/>
                <path d="M423.7,356.5C423.1,356.5 422.5,356.3 422,355.8C421.1,354.9 421,353.4 422,352.4C426.9,347.4 429.7,339.4 430.4,328.8C430.6,326.3 430.5,323.2 429,321.3C427.7,319.8 425.2,319.2 423.4,320.1L422.9,320.3C420.9,321.2 416.8,323.2 415.3,328.5C414.9,329.8 413.6,330.5 412.4,330.2C411.1,329.9 410.4,328.5 410.7,327.3C412.8,319.9 418.6,317.1 420.9,316L421.3,315.8C425.1,314 429.9,315 432.6,318.2C435.3,321.4 435.4,325.7 435.1,329.1C434.4,340.9 431.1,349.9 425.4,355.8C424.9,356.3 424.3,356.5 423.7,356.5" style="fill-rule:nonzero;"/>
                <path d="M425.5,319.3C425.2,319.3 424.8,319.2 424.5,319.1C423.3,318.5 422.8,317.1 423.4,315.9C425.1,312.3 426.8,308.8 428.5,305.2C429.1,303.8 429.6,302.6 429.5,301.6C429.3,300.7 428.4,299.7 427.5,298.8C426.2,297.6 424.4,296.2 422.9,296.2C422,296.2 421,296.7 420.1,297.6C419.1,298.5 418.3,299.7 417.5,301C416.8,302.1 416.2,303 415.6,304C414.8,305.3 414,306.6 412.9,308.3C412.2,309.4 410.7,309.7 409.6,308.9C408.5,308.2 408.2,306.7 409,305.6C410.1,304 410.8,302.7 411.6,301.5C412.2,300.5 412.8,299.5 413.6,298.3C414.5,296.9 415.6,295.3 417,294C418.8,292.4 420.9,291.4 422.9,291.4L423.1,291.4C426.3,291.4 428.9,293.4 430.9,295.2C432.5,296.6 434,298.3 434.4,300.6C434.9,303.1 433.8,305.5 433.1,307C431.4,310.6 429.7,314.2 428,317.8C427.3,318.8 426.4,319.3 425.5,319.3" style="fill-rule:nonzero;"/>
                <path d="M422.2,296.1C421.1,296.1 420.2,295.4 419.9,294.3C419.1,291.4 414.8,287.9 408.7,289.1C407.4,289.4 406.2,288.5 405.9,287.2C405.6,285.9 406.5,284.7 407.8,284.4C416.2,282.8 423.1,287.6 424.5,293C424.8,294.3 424.1,295.6 422.8,295.9C422.6,296.1 422.4,296.1 422.2,296.1" style="fill-rule:nonzero;"/>
                <path d="M432.8,334.1C431.9,334.1 431,333.6 430.6,332.7C430.1,331.5 430.6,330.1 431.8,329.6C433.5,328.8 435,327.6 436.4,326.3C437.9,325 439.7,323.4 440.7,321.5C441.7,319.8 442,317.9 441.6,316.5C440.9,314.5 438.8,313 436.5,311.4C435.8,310.9 435,310.4 434.3,310.2C433.3,309.9 432.2,310.2 431.4,310.8C431.1,311.1 429.6,312.4 429.1,313C428.6,313.6 428.6,311.3 428,310.6C427.1,309.6 427.2,308.1 428.2,307.2C430.2,305.4 433,304.8 435.6,305.6C437,306 438.1,306.8 439.1,307.4C441.4,308.9 444.9,311.2 446.1,315C447,317.7 446.5,321 444.8,323.9C443.4,326.4 441.3,328.3 439.5,329.9C437.9,331.3 436,332.9 433.7,333.9C433.5,334 433.1,334.1 432.8,334.1" style="fill-rule:nonzero;"/>
                <path d="M438.3,358.7C437.7,358.7 437.2,358.5 436.7,358.1C435.7,357.2 435.6,355.7 436.5,354.7C442,348.4 447.1,334.6 440.7,324.8C440,323.7 440.3,322.2 441.4,321.5C442.5,320.8 444,321.1 444.7,322.2C452.6,334.1 446.8,350.2 440.2,357.8C439.6,358.4 439,358.7 438.3,358.7" style="fill-rule:nonzero;"/>
                <path d="M132.7,276C120.6,268.5 112,265.9 95.5,262.9C87.6,261.5 76.9,259.6 64.9,259.8C49.3,260.7 33.4,263.2 17.9,261.4C14.6,261.1 11.3,260.6 8,260.4C3,260.1 2.6,263 3.4,265.5C4,267 5.2,268.6 6.2,270.1C7.1,271.4 8,272.5 8.8,273.7C18.3,285.2 17.5,286 39.9,307.5C57.4,324.2 85.6,343.2 106.9,350.8C117.9,354.8 124.8,355.3 134.6,354.7C130.8,353 133.8,351.8 130.6,350.4C126.2,348.4 115.6,346.1 109.6,343.9C74.5,330.8 36.3,298.1 14.2,268.5C15.2,268.6 16.2,268.7 17.3,268.8C33.1,270.6 49.2,268.3 65,267.3C90.6,267 110,275.6 132.7,276" style="fill-rule:nonzero;"/>
                <path d="M130.4,308.9C130.5,308.9 130.6,309 130.7,309.2C131.7,310.5 133,313.3 129,314.9C128.9,314.9 128.6,315 128.4,315L118.4,311.7C105.5,307.3 92.8,302.7 80.1,297.9L61.1,290.6L45.7,284.4C45.7,284.4 37,280.2 31.2,276.6C21.2,270.8 26,271.4 32.8,273.5C32.5,273.3 36.5,274.7 40.6,276.1C44.7,277.5 48.9,278.9 48.9,278.9L64.4,285.1L83,292.3C95.4,297 107.9,301.5 120.4,305.8L130.4,308.9Z" style="fill-rule:nonzero;"/>
                <path d="M127.6,317.1C127.7,317.1 127.8,317 128,317.1C129.5,317.5 132.2,319.1 129.9,322.7C129.9,322.8 129.6,323 129.5,323.1C126.1,324.2 122.6,325.1 119.1,325.8C116.8,326.3 114.6,326.7 112.3,327.1C110.3,327.4 108.4,327.7 106.4,327.9C106.4,327.9 103.9,328 100.6,328C97.3,328 93.1,327.7 89.7,327.2C78.2,325.4 83,324.3 90,323.7C89.6,323.6 93.8,323.4 98,322.9C102.2,322.4 106.5,321.6 106.5,321.6C108.1,321.4 109.7,321.2 111.3,320.9C113.5,320.6 115.6,320.1 117.8,319.7C121.1,319 124.4,318.1 127.6,317.1" style="fill-rule:nonzero;"/>
                <path d="M98.6,298.6C98.7,298.6 98.8,298.6 99,298.7C100.5,299.4 102.9,301.3 100,304.5C99.9,304.6 99.7,304.8 99.5,304.8C96,305.4 92.4,305.8 88.9,306.1C86.5,306.3 84.1,306.4 81.6,306.4C79.6,306.5 77.6,306.4 75.6,306.4C75.6,306.4 73.1,306.2 69.8,305.7C66.5,305.2 62.4,304.3 59.1,303.3C53.5,301.7 52,300.6 52.7,300.1C53.4,299.6 56.3,299.7 59.8,299.9C59.5,299.8 63.6,300.1 67.9,300.2C72.1,300.3 76.5,300.1 76.5,300.1L81.4,300.1C83.7,300.1 86,299.9 88.3,299.8C91.9,299.5 95.3,299.1 98.6,298.6" style="fill-rule:nonzero;"/>
                <path d="M126,307.5C126.1,307.6 126.1,307.7 126.1,307.9C126.2,309.6 125.4,312.5 121.3,311.4C121.2,311.4 120.9,311.3 120.8,311.2C118.8,308.4 116.7,305.8 114.5,303.2C112.5,300.8 110.4,298.6 108.3,296.3C107,294.9 105.6,293.6 104.2,292.3C104.2,292.3 102.7,290.7 100.4,288.2C98.2,285.9 95.3,283 93,280.7C88.9,276.8 87.7,275.4 88.6,275.2C89.4,275 92.2,276.2 95.3,278.1C95,277.8 98.7,280.2 102.2,282.8C105.8,285.4 109.2,288.4 109.2,288.4C110.4,289.6 111.6,290.8 112.8,292C115.1,294.3 117.2,296.7 119.3,299.2C121.7,301.8 123.9,304.6 126,307.5" style="fill-rule:nonzero;"/>
                <path d="M138.7,376.6L140.4,372.2C140.4,372.2 141.4,382 144.5,383.2C146.6,384 155.9,382.4 155.9,382.4L161,386L142.9,389L137.1,389.6L138.7,376.6Z" style="fill-rule:nonzero;"/>
            </g>
        </g>
    </g>
</svg>
